<svg width="18" height="18" viewBox="0 0 18 18" fill="none" xmlns="http://www.w3.org/2000/svg">
<path d="M17.1426 0.857143C15.9991 -0.285714 14.1391 -0.285714 12.9956 0.857143L1.24681 12.6056C1.24128 12.6112 1.23802 12.618 1.23313 12.6239C1.22629 12.6317 1.22042 12.6402 1.21423 12.6486C1.19697 12.6727 1.18361 12.6985 1.17351 12.7265C1.17058 12.735 1.16634 12.7425 1.16406 12.7509C1.16308 12.7542 1.16113 12.7575 1.16015 12.7607L0.00847065 17.5986C0.00325794 17.6205 0.00195476 17.6426 0.00130318 17.6644C0.00130318 17.6687 0 17.6726 0 17.6768C0.000325794 17.714 0.00847065 17.7501 0.0211766 17.785C0.0241088 17.7931 0.0273667 17.8003 0.0309504 17.8081C0.0469143 17.843 0.0667878 17.8765 0.0948061 17.9045C0.125757 17.9355 0.162245 17.9593 0.201667 17.9756C0.241088 17.9919 0.283115 18 0.325142 18C0.350229 18 0.375641 17.9971 0.400401 17.9912L5.23844 16.8396C5.24724 16.8376 5.25506 16.8327 5.26353 16.8298C5.27461 16.8262 5.28503 16.822 5.29578 16.8171C5.31924 16.8063 5.34107 16.793 5.36127 16.777C5.36909 16.7708 5.37723 16.7662 5.38472 16.7594C5.38733 16.7568 5.39059 16.7555 5.3932 16.7529L17.1423 5.00407C18.2858 3.86056 18.2858 2.00033 17.1426 0.857143ZM16.682 1.3178C17.4925 2.12869 17.5616 3.40186 16.8937 4.29451L13.7052 1.10604C14.5982 0.438182 15.8714 0.507249 16.682 1.3178ZM1.61626 16.3831C1.48888 16.2557 1.28298 16.2557 1.15559 16.3831L0.908965 16.6297L1.74104 13.1347L3.1817 12.9748L2.99633 14.6434C2.99502 14.6558 2.99959 14.6672 2.99959 14.6793C2.99959 14.6916 2.99502 14.7027 2.99633 14.7151C2.99763 14.7259 3.00317 14.7346 3.00545 14.7451C3.00936 14.764 3.0149 14.7812 3.02174 14.7988C3.03021 14.82 3.04031 14.8392 3.05269 14.8578C3.06279 14.8728 3.07289 14.8861 3.08527 14.8992C3.10091 14.9158 3.11785 14.9298 3.13642 14.9428C3.15108 14.9529 3.16509 14.9624 3.18138 14.9702C3.20288 14.9803 3.22536 14.9862 3.24882 14.9917C3.2612 14.9946 3.2713 15.0015 3.284 15.0031C3.29573 15.0044 3.30746 15.005 3.31952 15.005H3.32049C3.33222 15.005 3.3446 15.0044 3.35633 15.0031L5.02505 14.8177L4.86508 16.2583L1.36964 17.0904L1.61626 16.8438C1.74332 16.7167 1.74332 16.5105 1.61626 16.3831ZM5.70498 14.5981L12.9956 7.30738C13.123 7.18 13.123 6.9741 12.9956 6.84672C12.8682 6.71934 12.6623 6.71934 12.5349 6.84672L5.24431 14.1375L3.68929 14.3101L3.86196 12.7552L11.1532 5.46473C11.2806 5.33735 11.2806 5.13145 11.1532 5.00407C11.0258 4.87669 10.8199 4.87669 10.6926 5.00407L3.40129 12.2945L2.36429 12.4098L12.3174 2.48256L15.53 5.69506L5.58965 15.6351L5.70498 14.5981ZM15.9906 5.2344L12.7653 2.00912L13.2263 1.54813L16.4516 4.77342L15.9906 5.2344Z" fill="#7A768D"/>
</svg>
