<svg viewBox="0 0 312.5 317.6250144464802" class="logo">
    <defs id="SvgjsDefs1493"><linearGradient id="SvgjsLinearGradient1502"><stop id="SvgjsStop1503" stop-color="#ef4136" offset="0"></stop><stop id="SvgjsStop1504" stop-color="#fbb040" offset="1"></stop></linearGradient><linearGradient id="SvgjsLinearGradient1505"><stop id="SvgjsStop1506" stop-color="#ef4136" offset="0"></stop><stop id="SvgjsStop1507" stop-color="#fbb040" offset="1"></stop></linearGradient></defs><g id="SvgjsG1494" featurekey="rootContainer" transform="matrix(1.679851890870981,0,0,1.679851890870981,0.0005871445827524324,0.0002897674663174521)" fill="#fff"><path xmlns="http://www.w3.org/2000/svg" d="M17.914 148.907zM22.657 154.94a90.586 90.586 0 0 0 5.861 6.251c6.914 6.805 15.159 12.525 24.004 16.851 3.259 1.526 6.265 3.107 9.787 4.468.88.338 1.779.7 2.724 1.026.953.302 1.941.604 2.974.903 1.027.321 2.122.549 3.267.786 1.146.23 2.336.493 3.614.624a91.24 91.24 0 0 1-18.434-5.99 93.833 93.833 0 0 1-16.873-9.842c-10.548-7.727-19.57-17.648-26.16-28.989-.272-.339-.685-.985-1.18-1.808l-.796-1.348-.803-1.551c-.534-1.076-1.149-2.168-1.62-3.226a71.281 71.281 0 0 0-1.326-2.748c2.048 5.101 4.412 9.563 7.059 13.806a93.473 93.473 0 0 0 3.869 5.697c-.192-.259-.392-.511-.583-.771a95.012 95.012 0 0 0 4.6 5.841l.016.02zM18.039 149.078l-.125-.17.125.17zM1.335 106.042l-.483-3.875c.256 2.365.553 5.008 1.096 7.654l-.327-1.879a23.961 23.961 0 0 1-.286-1.9zM85.812 185.575c6.652.673 13.628.472 20.461-.609 6.837-1.077 13.524-2.987 19.741-5.449-11.45 4.503-23.602 6.506-35.49 6.171-1.591-.025-3.159 0-4.712-.113z"></path><path xmlns="http://www.w3.org/2000/svg" d="M46.426 171.967l-.259-.165c.087.055.172.111.259.165zM46.167 171.802zM43.653 170.135zM56.077 177.284A83.837 83.837 0 0 0 73.2 183.1c-9.688-2.21-18.805-6.109-26.774-11.133 3.06 1.947 6.277 3.749 9.651 5.317zM177.002 107.094c.098-1.58.296-3.238.346-4.027.594-5.071.77-9.401.745-13.745-.11-.783-.425-2.25-.55-3.918-.153-1.672-.378-3.309-.568-4.924-.289-1.601-.538-3.186-.854-4.74 2.275 11.617 2.237 23.279.144 34.282a94.97 94.97 0 0 1 .737-2.928z"></path><path xmlns="http://www.w3.org/2000/svg" d="M.887 83.482c.848-6.9 2.653-13.626 4.37-18.107l-.695 3.28c.429-.961 1.122-3.194 2.067-5.557l.682-1.802.753-1.747c.5-1.131.92-2.203 1.363-3.025-.303.771-.595 1.602-.947 2.436-.345.837-.732 1.687-1.101 2.542l1.514-3.409A111.863 111.863 0 0 0 4.954 69.8c-1.133 4.352-2.029 8.926-2.511 13.032-.14 1.024-.189 2.024-.28 2.978-.067.954-.183 1.864-.192 2.724-.042 1.719-.1 3.224-.071 4.428.105 2.409.25 3.61.459 2.939.411-1.333.403-8.188 1.837-16.767.767-4.276 1.868-8.966 3.362-13.561 1.483-4.599 3.427-9.058 5.44-12.992l-.592 1.292-.545 1.331-1.116 2.691-1.024 2.78-.521 1.402c-.153.476-.308.954-.461 1.434-1.32 3.807-2.307 7.816-3.167 11.857l-.559 3.052c-.205 1.014-.292 2.046-.444 3.067-.318 2.041-.434 4.097-.611 6.129-.199 4.074-.239 8.098.13 11.946-.015-.914-.03-1.726-.017-2.512l.115-2.355c.048-.809.039-1.667.115-2.65.07-.983.134-2.091.19-3.402.391-6.608 1.572-13.15 3.408-19.481 1.75-6.358 3.814-11.957 6.889-17.03l.801-1.526c.542-1.024.993-2.034 1.566-3.064.653-1.13 1.278-1.976 1.784-2.751.521-.767.963-1.441 1.469-2.095l3.682-5.082c.075-.009-.022.185-.2.473a28.962 28.962 0 0 1 1.959-2.49c.755-.875 1.488-1.803 2.109-2.569.146-.007.288-.011.623-.251 8.65-9.197 19.295-16.692 31.291-21.417l2.667-1.039 2.7-.899 1.343-.448 1.36-.38 2.71-.753c1.55-.373 3.12-.751 4.721-1.091l2.437-.426c.819-.141 1.642-.3 2.484-.378 1.674-.201 3.134-.625 3.921-.729 4.369-.249 8.73-.199 13.849.216.397.007 1.015.043 1.732.082.717.041 1.537.061 2.332.134.932.21 1.927.418 2.971.621 6.369.988 12.527 2.754 18.386 5.103l-.007-.028 2.244.894 2.29 1.058c1.571.684 3.11 1.559 4.7 2.383.798.407 1.554.904 2.338 1.354.77.474 1.576.894 2.32 1.412 1.508 1.002 3.037 1.961 4.446 3.032a99.912 99.912 0 0 1 6.6 5.198c.046.042.094.081.14.122l.042.038 1.457 1.322 1.394 1.391 1.395 1.392c.462.467.89.967 1.337 1.449-.216-.35-.208-.491-.2-.63-.689-.66-1.504-1.441-2.309-2.21 1.343 1.222 2.515 2.327 3.477 3.229.371.474.776.94 1.16 1.449l1.186 1.566 1.261 1.629 1.255 1.752c2.226 2.838 4.191 5.874 6.057 8.97.864 1.588 1.817 3.131 2.586 4.774l1.213 2.436 1.092 2.497c.314.533.192.022.231-.068 1.225 2.962 2.21 6.042 3.102 9.146a88.212 88.212 0 0 1 3.408 17.211c.225 1.378.321 2.772.52 4.153l-.123 2.924c-.001 1.103.057 2.206.01 3.311l-.128 3.326c-.016.75-.124 1.569-.187 2.459-.084.888-.128 1.846-.256 2.856l-.412 3.192c-.132 1.119-.387 2.269-.583 3.471a90.635 90.635 0 0 1-4.312 15.482c-.242.826-.427 1.486-.592 1.855-.627 1.501-1.296 2.954-1.942 4.385-.723 1.394-1.386 2.788-2.127 4.108a86.09 86.09 0 0 1-7.949 12.379c-.336.439-.649.885-.987 1.297l-.998 1.206c-.66.779-1.25 1.558-1.876 2.234-1.251 1.352-2.301 2.606-3.286 3.549-1.128 1.178-1.027 1.233-.246.665a35.07 35.07 0 0 0 1.608-1.262l2.122-1.914c.776-.677 1.519-1.441 2.235-2.161.708-.725 1.416-1.386 1.962-1.984 1.101-1.191 1.824-1.926 1.67-1.599-1.777 3.345-5.013 7.471-9.743 12.035-2.413 2.227-5.128 4.647-8.339 6.98-1.566 1.221-3.307 2.338-5.082 3.558-1.834 1.123-3.708 2.353-5.757 3.445-4.484 2.442 3.365-1.475 3.577-1.512a22.87 22.87 0 0 1-2.377 1.64c-1.478.786-2.943 1.597-4.474 2.273-.895.411-1.774.855-2.679 1.239l-2.729 1.122 1.444-.568c2.952-1.173 5.711-2.555 8.202-3.922-.936.566-1.96 1.221-3.082 1.812-1.203.622-2.448 1.302-3.697 1.909l-3.625 1.686c12.968-4.711 24.885-12.507 34.319-22.67 4.723-5.066 8.935-10.631 12.369-16.651a93.904 93.904 0 0 0 8.288-18.999c-3.154 9.93-8.071 19.052-13.981 26.765 10.744-14.507 17.15-32.293 17.999-50.636-.001 1.011-.101 2.018-.168 3.025-.083 1.007-.123 2.018-.241 3.022-.257 2.005-.441 4.021-.827 6.009-.624 4-1.636 7.931-2.782 11.815 2.262-7.021 3.613-14.424 4.145-21.869.554-7.451.092-14.947-1.057-22.211 1.974 9.622 2.301 20.524.619 31.298 1.182-6.949 1.482-14.112 1.028-21.214-.102-2.713-.422-5.407-.685-7.901-.377-2.476-.662-4.762-1.027-6.611 1.445 6.826 2.015 12.648 2.293 18.136-.267-11.977-2.748-24.112-7.62-35.511 2.659 6.191 4.842 12.851 6.175 19.698 1.34 6.84 1.897 13.838 1.58 20.57-.015-.788.018-1.575-.028-2.366l-.107-2.391c.287 10.85-1.384 21.604-4.696 31.717-1.662 5.056-3.715 9.969-6.2 14.644a95.521 95.521 0 0 1-8.56 13.316c3.673-4.29 7.551-10.354 10.646-17.015 3.081-6.675 5.368-13.894 6.941-20.199-2.314 11.322-6.907 22.494-13.571 32.471-6.646 9.985-15.351 18.764-25.423 25.502-10.06 6.759-21.474 11.437-33.187 13.748a94.608 94.608 0 0 1-17.657 1.809 94.462 94.462 0 0 1-17.361-1.515l3.005.571c1.002.19 2.018.295 3.026.445 2.016.324 4.055.446 6.087.633 4.073.229 8.168.306 12.25-.005 4.089-.217 8.152-.827 12.196-1.572 2.006-.456 4.036-.829 6.017-1.414.994-.278 2-.521 2.987-.83l2.955-.958c-1.492.462-3.062 1.074-4.739 1.523l-2.101.618a91.772 91.772 0 0 0 12.91-4.496 89.46 89.46 0 0 0 5.651-2.705 96.653 96.653 0 0 1-10.714 4.872 98.407 98.407 0 0 1-21.66 5.382c-1.11.176-2.122.231-3.029.326l-2.428.24c-1.429.113-2.484.164-3.222.245-1.477.147-1.687.284-1.099.397.587.113 1.971.203 3.673.251 1.697-.01 3.71-.101 5.541-.268 18.397-1.887 35.288-9.107 48.824-19.916 13.545-10.811 23.919-25.172 29.701-41.467.363-.946.642-1.922.944-2.89.293-.971.617-1.932.882-2.912.491-1.97 1.072-3.917 1.448-5.917l.619-2.985.487-3.012.241-1.507.172-1.517.342-3.034c.698-8.114.422-16.315-.812-24.363-.66-4.554-1.82-9.961-3.315-14.777l-1.15-3.484c-.4-1.107-.825-2.151-1.203-3.133l-.557-1.415-.571-1.271-.981-2.124c-3.134-6.359-7.072-12.424-11.682-18.065-4.605-5.643-9.896-10.868-15.861-15.418l-2.244-1.703-2.327-1.608-1.166-.806-1.203-.756-2.417-1.508c-3.295-1.904-6.67-3.739-10.228-5.261-3.521-1.598-7.206-2.895-10.957-4.055-1.895-.52-3.781-1.1-5.724-1.499-.968-.209-1.928-.463-2.907-.638l-2.944-.521C100.363.01 93.04-.285 85.724.265 78.412.83 71.069 2.218 64.028 4.614l-2.635.913c-.881.297-1.73.682-2.597 1.019-.858.359-1.735.673-2.577 1.069l-2.532 1.173c-.852.376-1.675.808-2.496 1.245l-2.469 1.297-2.402 1.412c-.8.472-1.606.933-2.372 1.458l-2.324 1.528c-.782.497-1.506 1.078-2.261 1.612-.741.554-1.51 1.07-2.226 1.654l-2.157 1.737c-.729.565-1.417 1.178-2.103 1.792l-2.063 1.83-1.971 1.919c-.656.639-1.319 1.271-1.93 1.951-5.031 5.298-9.451 11.078-13.066 17.194A99.518 99.518 0 0 0 5.18 64.379C.805 77.299-.45 90.402.134 102.237c-.126-4.872-.147-11.859.753-18.755zm141.132 90.446a96.807 96.807 0 0 0 8.765-6.389c-2.84 2.339-5.758 4.499-8.765 6.389zm40.217-54.282c-.299.901-.552 1.791-.882 2.641l-.957 2.523-.466 1.248-.513 1.231a108.54 108.54 0 0 0-.997 2.501 97.307 97.307 0 0 1-6.587 13.35c-2.521 4.275-5.443 8.281-8.565 12.04-1.542 1.899-3.222 3.66-4.874 5.421l-2.581 2.523c-.847.848-1.774 1.604-2.652 2.404-.736.64-1.478 1.266-2.225 1.882a90.696 90.696 0 0 0 7.896-7.312 89.808 89.808 0 0 1-11.689 10.188c-1.036.722-2.037 1.496-3.113 2.176l-3.247 2.069-3.43 1.949c-1.167.648-2.399 1.224-3.634 1.855a74.206 74.206 0 0 1 2.685-1.508c1.021-.567 2.092-1.237 3.138-1.85 1.054-.601 2.012-1.261 2.808-1.813.796-.552 1.42-1.01 1.745-1.306-.464.315-.936.617-1.406.924a92.477 92.477 0 0 0 1.507-1.015c-.021.023-.065.059-.101.091 10.932-7.466 20.245-17.277 27.223-28.462 7.009-11.175 11.57-23.781 13.46-36.601-.41 5.142-1.352 9.248-2.543 12.851zm-6.654-65.352zm-8.448-12.698a92.37 92.37 0 0 1 7.773 14.352c.25.549.486 1.106.719 1.664 4.963 12.154 7.221 25.192 6.89 38.036.084-4.25-.198-8.498-.669-12.71-.533-4.854-1.518-9.65-2.824-14.341-2.562-9.407-6.723-18.323-12.005-26.451.485.67.996 1.396 1.525 2.166a32.826 32.826 0 0 1 1.59 2.463l-.638-1.109-.689-1.079-1.378-2.156c-.938-1.424-1.955-2.796-2.934-4.192-1.062-1.334-2.069-2.712-3.174-4.011-.836-.953-1.637-1.938-2.485-2.879 2.992 3.155 5.801 6.54 8.299 10.247zM96.886 1.152c1.467.078 2.937.221 4.407.331 1.204.101 2.402.279 3.588.413.356.015.732.039 1.204.092.471.065 1.034.186 1.769.354 5.469.912 10.459 2.283 14.001 3.699 6.798 2.573 13.123 5.774 18.86 9.471 5.739 3.69 10.889 7.887 15.246 12.471 2.008 2.179 1.422 1.704.315.646l1.662 1.764c-.736-.734-1.459-1.478-2.206-2.196l-2.301-2.09c.56.49 1.918 1.663 2.845 2.522-7.389-7.539-16.026-13.799-25.375-18.404-9.356-4.603-19.431-7.446-29.502-8.581 1.618.18 2.412.22 3.168.24-1.085-.127-2.173-.301-3.274-.401-1.479-.097-2.955-.229-4.423-.301l-4.36-.103c1.444-.001 2.907.039 4.376.073z"></path><path xmlns="http://www.w3.org/2000/svg" d="M115.942 184.69l.426-.125c-.446.12-.885.252-1.334.366.304-.076.609-.15.908-.241zM160.424 146.151c4.235-5.587 7.977-12.263 10.366-18.014l-.029.006c-6.061 14.322-15.892 26.66-28.16 35.744a159.12 159.12 0 0 0 6.418-4.703c2.698-2.82 7.213-7.406 11.405-13.033zM35.35 162.846c7.172 6.412 15.821 11.992 25.448 15.751 3.754 1.413 7.585 2.651 11.503 3.523 1.944.502 3.929.812 5.899 1.181.987.175 1.987.272 2.979.412.994.129 1.986.275 2.987.333-4.519-.501-9.005-1.251-13.372-2.44-4.364-1.185-8.642-2.65-12.769-4.449a97.4 97.4 0 0 1-11.894-6.314c-3.786-2.408-7.376-5.097-10.781-7.997zM123.877 174.277l-2.219.871-2.266.756c-1.5.54-3.047.944-4.59 1.373 1.551-.39 3.111-.754 4.624-1.254l2.283-.698 2.23-.815c-.086-.044-.594.055-.062-.233zM97.683 179.965c-1.16.099-2.326.09-3.494.102-1.168.014-2.338.039-3.509-.038l1.576.148c.482.031.916.068 1.295.113 1.381-.118 2.752-.151 4.132-.325zM51.441 169.209c1.341.787 2.765 1.48 4.178 2.244.354.194.996.415 1.801.709-1.721-.739-3.37-1.655-5.046-2.505-.83-.441-1.629-.935-2.443-1.395-.812-.464-1.621-.927-2.389-1.445l.937.626.977.584 1.985 1.182z"></path></g><g id="SvgjsG1495" featurekey="symbolFeature-0" transform="matrix(0.820746665743631,0,0,0.820746665743631,115.61769292497468,81.05582194780077)" fill="#fff"><path xmlns="http://www.w3.org/2000/svg" d="M52.094,93.749c0.001,0,11.108-7.41,0.883-22.909c-4.773-7.235-12.596-14.971-11.701-22.63  c-1.015,0.883-1.937,1.859-2.38,2.453c-1.618,2.169-2.791,4.529-3.392,6.964c-0.697,2.823-0.515,5.795,1.102,8.686  c1.501,2.683,4.107,5.103,6.558,7.537c5.868,5.826,11.036,12.018,9.461,18.607C52.541,92.811,52.5,93.478,52.094,93.749z"></path><path xmlns="http://www.w3.org/2000/svg" d="M59.398,79.14c0.001-0.001,17.835-11.897,1.417-36.782C53.152,30.742,40.592,18.321,42.03,6.024  c-1.365,1.194-3.11,2.985-3.821,3.939c-2.598,3.482-4.481,7.271-5.446,11.181c-1.12,4.533-0.827,9.304,1.77,13.946  c2.41,4.308,6.594,8.193,10.53,12.102c9.421,9.355,17.719,19.295,15.19,29.876C60.116,77.635,60.049,78.706,59.398,79.14z"></path></g><g id="SvgjsG1496" featurekey="nameFeature-0" transform="matrix(1.039167955267067,0,0,1.039167955267067,56.758855373408174,167.12337487298987)" fill="#fff"><path d="M18 19.28 q-7.28 -0.64 -16.08 0.08 q0.04 0.24 0 1.4 l0 1.04 q-0.04 1.04 0 1.64 q0.04 0.36 0.08 0.56 q0 0.04 0.04 0.08 l0.28 0 q0.36 0.04 1.04 0 q1.08 -0.08 3.04 -0.32 q0.36 -0.04 0.8 -0.12 l0.4 -0.04 q0.36 -0.04 0.8 -0.1 l0.88 -0.12 t0.6 -0.06 q0.6 -0.08 0.88 -0.12 l0.28 0 l0.12 0 q0.16 0.04 0.28 0.12 q0.2 0.2 0.08 0.44 q0 0.04 -0.04 0.1 t-0.08 0.1 q-0.08 0.12 -0.24 0.28 q-0.2 0.28 -0.64 0.76 l-0.04 0.04 q-0.08 0.08 -0.32 0.34 t-0.44 0.48 t-0.2 0.26 q-0.6 0.68 -1.92 1.96 q-0.12 0.12 -0.62 0.6 t-0.54 0.56 q-0.72 0.68 -1.24 1.2 q-1.76 1.8 -2.84 3.2 q-1.36 1.8 -1.92 3.32 q-0.68 1.88 -0.08 3.44 q4.8 0.4 10.2 0.48 q7.2 0.16 9 -0.48 q-0.4 -2.08 -0.36 -4.08 l0 -0.32 l0.04 -0.24 l0 -0.44 q0 -0.12 -0.04 -0.2 q0 -0.04 -0.02 -0.06 t-0.06 -0.02 q-0.12 -0.04 -0.32 -0.04 q-0.32 -0.04 -1.28 0.04 q-0.04 0 -0.46 0.04 t-0.54 0.04 q-0.68 0.08 -1.24 0.12 q-1.72 0.08 -3.48 0.16 q-0.08 0 -0.6 0.04 l-0.52 0.08 q-0.52 0.08 -0.68 0.08 q-0.16 0.04 -0.32 0.04 q-1 0.12 -1.52 0.16 q-0.36 0.04 -0.56 0.04 q-0.12 0 -0.2 -0.02 t-0.16 -0.06 q-0.16 -0.12 -0.2 -0.32 q-0.12 -0.76 1.8 -2.72 q0.56 -0.56 1.84 -1.8 q1.48 -1.4 2.16 -2.04 q1.88 -1.84 3.04 -3.24 q3.48 -4.2 2.12 -6.36 z M1.68 18.56 q8.92 -0.76 16.36 -0.08 l0.04 0 q0.12 0 0.2 0.04 q0.2 0.04 0.28 0.16 q1.08 1.48 0.32 3.6 q-0.6 1.68 -2.4 3.88 q-1.2 1.4 -3.08 3.28 q-0.68 0.68 -2.16 2.08 q-1.28 1.2 -1.84 1.76 q-0.84 0.88 -1.24 1.4 q-0.12 0.2 -0.24 0.36 q0.08 -0.04 0.16 -0.04 q0.52 -0.04 1.48 -0.16 q0.16 0 0.36 -0.04 q0.16 0 0.64 -0.08 l0.52 -0.08 q0.6 -0.04 0.72 -0.04 q1.76 -0.08 3.4 -0.16 q0.6 -0.04 1.28 -0.12 q0.12 0 0.52 -0.04 t0.48 -0.04 q0.96 -0.08 1.36 -0.04 q0.6 0 0.88 0.26 t0.32 0.82 l0 0.48 l-0.04 0.24 l0 0.36 q-0.04 1.92 0.36 3.96 q0.04 0.12 0 0.2 q0.12 0.36 -0.2 0.52 q-1.68 0.8 -9.6 0.64 q-5.44 -0.08 -10.32 -0.48 q-0.16 0 -0.24 -0.12 q-0.28 -0.04 -0.36 -0.28 q-0.76 -1.88 0.04 -4.12 q0.6 -1.64 2.04 -3.52 q1.12 -1.44 2.92 -3.28 l1.24 -1.24 q0.04 -0.04 0.54 -0.52 t0.62 -0.6 q1.28 -1.28 1.84 -1.92 q0.04 -0.04 0.24 -0.26 t0.44 -0.5 t0.32 -0.32 q0 -0.04 0.04 -0.04 q0.2 -0.24 0.36 -0.4 q-0.16 0 -0.32 0.02 t-0.6 0.08 t-0.86 0.12 t-0.82 0.1 l-0.36 0.04 q-0.48 0.08 -0.84 0.12 q-1.96 0.24 -3.08 0.32 q-1.6 0.08 -1.92 -0.2 q-0.28 -0.2 -0.36 -1.16 q-0.04 -0.64 0 -1.72 l0 -1.04 q0.04 -1.36 0 -1.48 q-0.04 -0.28 0.2 -0.44 q0.08 -0.24 0.36 -0.28 z M37.17 27.96 q0.08 -0.16 -0.08 -0.52 q-0.2 -0.52 -0.72 -1.16 q-1.12 -1.44 -2.5 -2.24 t-1.9 -0.2 q-0.8 0.84 -0.16 4.04 q0.12 0 0.2 0.04 q0.52 0.04 0.96 0.08 q0.84 0.04 1.56 0.08 q1.2 0.08 1.92 0 q0.4 0 0.64 -0.08 q0.04 0 0.08 -0.04 z M31.13 28.32 q-0.08 -0.08 -0.08 -0.16 q-0.76 -3.68 0.32 -4.84 q0.52 -0.6 1.4 -0.52 q0.68 0.08 1.52 0.56 q1.52 0.84 2.72 2.44 q1.36 1.72 0.84 2.6 q-0.12 0.28 -0.56 0.4 q-0.32 0.04 -0.8 0.08 q-0.76 0.08 -2 0 q-0.72 -0.04 -1.56 -0.08 q-0.48 -0.04 -1 -0.12 l-0.16 0 t-0.2 -0.04 l-0.08 0 q-0.32 0 -0.36 -0.32 z M31.37 31.119999999999997 q2.24 0.12 5.36 0.08 q1.04 0 3.16 -0.04 q2.92 -0.08 4.36 -0.08 q-1.08 -5.16 -4.48 -8.12 q-3.2 -2.76 -6.96 -2.52 q-3.84 0.28 -5.96 3.48 q-2.44 3.6 -1.64 9.64 q0.52 3.6 3.32 5.64 q2.56 1.84 6.08 1.88 q3.48 0.04 6.12 -1.6 q2.64 -1.72 3.24 -4.52 q-3.28 -0.68 -4.96 -1.12 q-0.88 2 -2.16 2.92 t-2.68 0.48 q-1.36 -0.4 -2.28 -1.86 t-1.16 -3.58 q-0.04 -0.32 0.24 -0.4 q0.08 -0.28 0.4 -0.28 z M39.05 33 q1.8 0.52 5.36 1.24 q0.16 0 0.24 0.16 q0.2 0.12 0.16 0.36 q-0.56 3.4 -3.64 5.4 q-2.84 1.8 -6.56 1.72 q-3.8 -0.04 -6.56 -2.04 q-3.08 -2.24 -3.6 -6.16 q-0.88 -6.36 1.72 -10.24 q2.36 -3.48 6.56 -3.76 q4.12 -0.28 7.56 2.68 q3.76 3.24 4.8 8.96 q0.08 0.4 -0.32 0.48 q-0.08 0.08 -0.24 0.08 q-1.56 0 -4.64 0.08 q-2.08 0.04 -3.16 0.04 q-3 0.04 -5.2 -0.08 q0.24 1.8 1.02 3.02 t1.86 1.54 t2.12 -0.48 t1.8 -2.68 q0.08 -0.2 0.36 -0.24 q0.16 -0.12 0.36 -0.08 z M56.78 39.08 q0.48 0.6 1.36 0.84 q0.76 0.16 2.12 0.12 q0.24 0 0.68 -0.04 q0.8 -0.04 1.16 -0.04 q1.32 -2.24 2.56 -5.32 q0.84 -2.04 2.08 -5.76 q0.08 -0.2 0.16 -0.44 q0 -0.04 0.06 -0.24 t0.1 -0.24 q1.72 -5.08 2.8 -7.56 l0.08 -0.16 q0.04 -0.12 0.12 -0.3 t0.12 -0.26 q0 -0.04 0.04 -0.08 q0.08 -0.2 0.12 -0.32 l-0.32 0 q-0.72 0 -1.8 0.04 q-1.08 0.08 -1.88 0.12 q-0.84 0.08 -0.96 0.12 q0 0.04 -0.04 0.08 q-0.08 0.04 -0.16 0.16 q-0.2 0.28 -0.4 0.72 q-0.36 0.88 -0.84 2.44 q-0.32 1.12 -0.84 3 l-0.12 0.52 q-0.16 0.52 -0.3 1.08 t-0.18 0.76 q-0.36 1.32 -0.6 2.12 q-0.68 2.2 -1.2 2.44 q-0.16 0.08 -0.32 0 q-0.08 0 -0.16 -0.08 q-0.04 -0.04 -0.04 -0.08 q-0.04 -0.04 -0.06 -0.1 t-0.06 -0.14 q-0.04 -0.16 -0.12 -0.44 q-0.04 -0.2 -0.12 -0.44 q0 -0.08 -0.04 -0.16 l0 -0.08 q-0.36 -1.36 -1.04 -3.16 q-0.4 -1 -2.04 -4.72 q-0.8 -1.84 -1.28 -2.92 q-0.32 -0.6 -0.48 -0.92 l-0.12 -0.24 q-0.72 -0.24 -2.52 -0.08 q-0.6 0.04 -1.4 0.16 q-0.04 0 -0.22 0.04 t-0.42 0.06 t-0.4 0.06 q0.36 2.68 2.9 9.8 t4.02 9.64 z M49.38 18.88 q0.08 0 0.4 -0.04 l0.64 -0.08 t0.36 -0.08 q0.84 -0.08 1.44 -0.16 q2.08 -0.2 3 0.16 q0.16 0.08 0.28 0.28 q0.04 0.12 0.16 0.32 l0.48 0.96 q0.48 1.08 1.32 2.92 q1.64 3.72 2.04 4.76 q0.68 1.84 1.04 3.24 q0 0.04 0.04 0.08 q0 0.08 0.04 0.16 q0 0.08 0.04 0.16 q0.2 -0.48 0.48 -1.36 q0.24 -0.8 0.56 -2.08 q0.08 -0.2 0.22 -0.76 t0.26 -1.08 l0.16 -0.52 q0.52 -1.92 0.84 -3.04 q0.48 -1.6 0.88 -2.52 q0.52 -1.16 1.04 -1.36 q0.4 -0.16 3.08 -0.32 q1.08 -0.04 1.84 -0.04 l0.64 0 q0.12 0 0.2 0.04 q0.24 0.04 0.36 0.16 q0.08 0.16 0.08 0.32 q0 0.08 -0.04 0.12 q0 0.08 -0.08 0.24 q-0.08 0.2 -0.24 0.56 q0 0.04 -0.04 0.08 q-0.04 0.08 -0.12 0.26 t-0.12 0.3 l-0.08 0.16 q-1.08 2.44 -2.76 7.48 q-0.04 0.04 -0.1 0.24 t-0.06 0.24 q-0.08 0.28 -0.16 0.48 q-1.28 3.72 -2.08 5.8 q-1.28 3.12 -2.64 5.4 q-0.04 0.08 -0.12 0.12 q-0.08 0.28 -0.36 0.28 q-0.4 0 -1.32 0.04 q-0.44 0.04 -0.68 0.04 q-1.48 0.08 -2.32 -0.16 q-1.12 -0.24 -1.76 -1.04 l-0.08 -0.08 q0 -0.04 -0.04 -0.04 q0 -0.04 -0.04 -0.08 t-0.04 -0.12 q-1.64 -2.84 -4.22 -10.18 t-2.78 -9.74 l0 -0.04 q-0.04 -0.4 0.36 -0.48 z M83.11000000000001 11.48 l-0.04 0 q-0.04 -0.04 -0.12 -0.04 q-0.2 -0.08 -0.6 -0.12 q-0.68 -0.08 -1.84 -0.04 q-0.64 0 -1.56 0.04 l-0.8 0.04 l-0.36 0 q1 6.32 0.96 15.76 q0 2.12 -0.04 6.28 q-0.08 4.36 -0.08 6.48 q0.96 0 2.96 -0.04 l0.52 0 q0.8 -0.04 1.36 -0.04 q0 -0.68 0.04 -2.32 l0 -1.8 t0.04 -1.92 q0.04 -4.6 0.04 -7.84 q0 -6.04 -0.08 -9.6 q-0.16 -4.24 -0.4 -4.84 z M77.63000000000001 10.559999999999999 l0.48 0 q0.6 -0.04 0.8 -0.04 q0.92 -0.04 1.6 -0.04 q1.2 -0.04 1.92 0.04 q1.08 0.12 1.32 0.52 q0.4 0.68 0.56 5.28 q0.08 3.52 0.08 9.6 q0 3.24 -0.04 7.84 q-0.04 0.4 -0.04 1.94 l0 1.78 q-0.04 1.76 -0.04 2.44 q0 0.2 -0.12 0.32 q-0.04 0.36 -0.4 0.36 q-0.64 0 -1.64 0.04 l-0.48 0 q-2.24 0.04 -3.36 0 q-0.4 0 -0.4 -0.4 l0 -0.04 q-0.04 -0.12 -0.04 -0.2 q0 -2.2 0.08 -6.6 q0.04 -4.16 0.04 -6.28 q0.04 -9.52 -0.96 -15.84 q-0.08 -0.4 0.28 -0.48 q0.12 -0.24 0.36 -0.24 z M100.36000000000001 33 q-1.88 -0.44 -3.4 0.84 q-0.72 0.64 -0.76 1.28 q0 0.64 0.8 1.12 q0.76 0.36 1.84 0.14 t1.88 -0.9 q0.76 -0.64 0.72 -1.24 q-0.04 -0.68 -1.08 -1.24 z M101.60000000000001 32.88 q0.6 0.6 0.64 1.32 q0.04 1 -1 1.92 q-1 0.8 -2.32 1.06 t-2.28 -0.26 q-1.2 -0.64 -1.22 -1.72 t1.02 -1.96 q0.96 -0.8 2.24 -1.04 q0.96 -0.2 1.84 0.04 l0.08 0 q0.4 0.12 0.76 0.28 q0.24 0.12 0.24 0.36 z M89.76000000000002 23.96 q1.56 -2.96 3.8 -4.8 q2.6 -2.12 5.68 -2.4 q5.2 -0.44 7.24 3.72 q0.8 1.68 1.16 4.24 q0.28 1.88 0.36 4.8 q0.04 0.76 0.04 2.36 q0.04 3.32 0.16 4.76 q0.2 2.16 0.72 3.32 q0.32 0.08 0.32 0.4 q0 0.4 -0.4 0.4 q-0.56 0 -1.52 0.04 q-1.04 0.08 -1.52 0.08 q-0.8 0 -1.36 -0.16 q-1.28 -0.4 -1.88 -1.8 q-1.64 0.72 -4.28 0.98 t-4.92 -0.1 q-2.84 -0.48 -4.04 -1.88 q-1.52 -1.72 -0.32 -4.4 q0.6 -1.4 1.28 -2.36 q0.88 -1.28 1.92 -1.92 q1.2 -0.72 2.8 -1.24 q0.92 -0.28 2.84 -0.72 q0.08 0 0.12 -0.04 q2.52 -0.56 3.76 -1.04 q0.24 -1.68 -0.4 -2.44 q-0.52 -0.64 -1.68 -0.52 q-1.2 0.12 -2.48 0.94 t-1.96 1.98 q-0.2 0.32 -0.52 0.12 q-0.08 -0.04 -0.12 -0.08 q-2.72 -0.56 -4.6 -1.44 q-0.24 -0.12 -0.2 -0.4 q-0.12 -0.2 0 -0.4 z M102.20000000000002 26.84 q-1.36 0.6 -4.08 1.2 l-0.04 0 q-0.04 0 -0.08 0.04 q-1.88 0.4 -2.76 0.68 q-1.52 0.48 -2.6 1.16 q-1.6 0.96 -2.92 3.92 q-0.96 2.2 0.2 3.52 q1 1.2 3.56 1.64 q2.28 0.36 4.88 0.08 t4.08 -1 q0.08 -0.04 0.16 -0.04 q0.04 0 0.04 -0.04 q0.4 -0.12 0.52 0.28 q0.48 1.36 1.52 1.68 q0.44 0.12 1.16 0.12 q0.4 0 1.4 -0.08 q0.52 0 0.84 -0.04 q-0.48 -1.2 -0.68 -3.24 q-0.12 -1.48 -0.16 -4.84 q0 -1.6 -0.04 -2.36 q-0.08 -2.84 -0.32 -4.68 q-0.36 -2.44 -1.12 -4 q-1.8 -3.68 -6.44 -3.28 q-2.84 0.24 -5.24 2.24 q-2.04 1.68 -3.52 4.36 q1.68 0.76 4.16 1.24 q0.84 -1.16 2.18 -2 t2.66 -0.96 q1.56 -0.16 2.4 0.8 q0.88 1.04 0.52 3.16 q0 0.08 -0.04 0.12 q-0.04 0.24 -0.24 0.32 z M128.49 26.240000000000002 q-5.12 -1.56 -8.64 0.28 q-1.44 0.76 -2.3 1.98 t-0.98 2.5 q-0.08 1.32 0.6 2.28 t2.04 1.36 q3.44 1.08 9.44 -1.88 q-0.04 -2.08 -0.16 -6.52 z M129.45000000000002 32.84 l0 0.24 q0 0.4 -0.4 0.4 l-0.04 0 q-6.28 3.08 -10.04 1.96 q-1.6 -0.52 -2.46 -1.72 t-0.74 -2.76 q0.12 -1.52 1.1 -2.9 t2.62 -2.22 q3.88 -2.08 9.48 -0.28 q0.04 0 0.08 0.04 q0.08 0.04 0.14 0.1 t0.06 0.14 l0 0.08 q0.16 4.2 0.2 6.56 l0 0.04 l0 0.12 l0 0.04 l0 0.12 l0 0.04 z M129.33 10.879999999999999 q0.24 0 0.68 -0.04 q0.08 -0.04 0.44 -0.08 t0.4 -0.04 q0.68 -0.08 1.16 -0.12 q2 -0.16 2.92 0.12 q0.24 0.08 0.4 0.36 q0.04 0.16 0.08 0.4 q0.08 0.36 0.04 0.92 l0 0.6 l0 0.56 q0.24 2.6 0.08 5.88 q-0.12 1.92 -0.52 5.88 q0 0.08 -0.02 0.2 t-0.02 0.16 q-0.48 4.56 -0.52 7 q-0.12 3.8 0.48 6.8 l0 0.08 q0.28 0.24 0.06 0.54 t-1.14 0.46 q-0.72 0.12 -1.72 0.16 q-0.96 0.04 -1.68 -0.04 q-0.4 -0.04 -0.64 -0.12 q-0.4 -0.12 -0.52 -0.4 q-0.16 -0.4 -0.16 -1.48 l0 -0.72 l0 -0.4 q-0.72 0.28 -2.2 1.04 l-0.04 0.04 q-0.04 0 -0.08 0.04 q-1.32 0.64 -2 0.92 q-1.12 0.52 -2.16 0.68 q-2.96 0.56 -5.2 -0.28 t-3.56 -2.92 q-1.16 -1.8 -1.44 -4.22 t0.36 -4.9 q0.64 -2.56 2.1 -4.58 t3.5 -3.1 q4.68 -2.44 10.68 0.8 q0 -4.32 -0.2 -9.56 q-0.04 -0.12 0.08 -0.24 q0 -0.36 0.36 -0.4 z M129.29000000000002 22.08 q-6 -3.48 -10.52 -1.08 q-1.88 0.96 -3.24 2.86 t-1.96 4.3 q-0.6 2.32 -0.34 4.58 t1.34 3.9 q2.44 3.84 7.96 2.84 q0.92 -0.16 2 -0.6 q0.64 -0.28 1.92 -0.92 q0 -0.04 0.04 -0.06 t0.08 -0.02 q1.76 -0.88 2.76 -1.24 q0.36 -0.12 0.52 0.28 l0 0.08 q0.08 0.12 0.08 0.24 q0.04 0.12 0 0.72 l0 0.72 q0 0.8 0.08 1.12 l0.04 0 q0.16 0.08 0.48 0.08 q0.64 0.08 1.56 0.04 t1.64 -0.16 q0.24 -0.04 0.44 -0.12 q-0.64 -3.08 -0.52 -7 q0.04 -2.44 0.52 -7.08 q0 -0.12 0.04 -0.32 q0.4 -3.92 0.52 -5.84 q0.16 -3.24 -0.08 -5.76 l0 -0.68 l0 -0.56 q0.04 -0.52 -0.04 -0.8 l0 -0.12 q-0.76 -0.24 -2.52 -0.08 q-0.48 0.04 -1.16 0.12 q-0.04 0 -0.38 0.04 t-0.46 0.04 q-0.24 0.04 -0.4 0.08 q0.2 5.36 0.2 9.76 q0 0.08 -0.04 0.16 q0.08 0.16 0 0.36 q-0.2 0.32 -0.56 0.12 z M156.14000000000001 40.16 q0.28 -0.04 0.96 -0.04 q0.8 0 1.2 -0.04 q1.68 -0.08 2.44 -0.48 q0 -0.68 0.04 -2.44 q0.04 -3.96 -0.04 -6.12 q-0.12 -3.84 -0.68 -6.44 q-0.64 -3.12 -1.92 -4.64 q-1.4 -1.68 -3.68 -1.36 q-2.72 0.4 -6.64 3.48 q-0.08 0.08 -0.24 0.08 q-0.12 0.08 -0.28 0.08 q-0.4 0 -0.4 -0.4 q0 -2.48 -0.68 -2.8 q-0.32 -0.16 -1.12 -0.04 q-0.32 0 -0.88 0.12 q-0.88 0.12 -1.16 0.16 t-0.52 0.08 q-0.04 1.04 -0.2 4.44 q-0.16 3.44 -0.2 5.52 q-0.16 6.68 0.52 10.32 q1.2 0.04 3.08 0.04 l0.72 0 l0.92 0 q0.04 -1.72 0.08 -2.64 q0.16 -3.2 0.48 -5.76 q0.6 -5.04 1.76 -7.32 q0.8 -1.56 1.9 -1.82 t2.46 0.9 q1.24 1.12 1.56 2.32 q0.84 3.2 0.72 8.44 q-0.04 0.88 -0.08 2.6 q-0.12 2.6 -0.12 3.76 z M142.10000000000002 18.62 q0.4 -0.06 0.84 -0.1 l1.12 -0.2 l0.96 -0.12 q1 -0.12 1.56 0.12 q1.04 0.48 1.12 2.84 q3.84 -2.96 6.64 -3.32 q2.72 -0.4 4.4 1.6 q1.44 1.68 2.12 5 q0.56 2.68 0.68 6.6 q0.08 2.16 0.04 6.12 q-0.04 1.72 -0.04 2.36 q0.24 0.32 -0.08 0.56 q-0.92 0.68 -3.12 0.8 q-0.4 0.04 -1.24 0.04 q-0.88 0.04 -1.24 0.04 q-0.28 0.04 -0.4 -0.24 q-0.12 -0.12 -0.12 -0.28 q0 -1.32 0.12 -4.08 q0.04 -1.72 0.08 -2.6 q0.12 -5.08 -0.68 -8.16 q-0.28 -1 -1.36 -1.96 q-1 -0.92 -1.76 -0.72 q-0.72 0.24 -1.32 1.4 q-1.12 2.16 -1.68 7.04 q-0.32 2.56 -0.48 5.68 l-0.08 3.04 q-0.04 0.4 -0.44 0.4 l-0.04 0 l-0.12 0 l-1.12 0 l-0.68 0 q-2 0 -3.24 -0.04 q-0.2 0 -0.32 -0.16 q-0.24 -0.04 -0.28 -0.32 q-0.76 -3.76 -0.6 -10.64 q0.04 -2.08 0.2 -5.56 q0.16 -3.4 0.2 -4.48 l0 -0.12 l0 -0.08 q-0.04 -0.4 0.36 -0.46 z M173.27 11.879999999999999 q-0.32 -0.12 -0.88 -0.08 q-0.48 0 -1.44 0.16 l-0.16 0 q-0.84 0.16 -1.2 0.2 q-0.44 0.04 -0.76 0 q-0.04 0.16 -0.06 0.38 t-0.06 0.38 t-0.04 0.2 q-0.08 0.6 -0.12 1 q-0.08 0.92 0.08 1.36 q0.32 0.92 2.6 0.92 q0.16 0 0.68 0.04 l0.56 0 q0.68 0.04 1 -0.08 q0 -0.2 0.04 -0.56 q0 -0.68 -0.04 -1.68 q0 -1 -0.08 -1.64 q-0.04 -0.36 -0.12 -0.56 l0 -0.04 z M168.83 11.399999999999999 q0.48 0 1.84 -0.2 q0.08 -0.04 0.12 -0.04 q1.04 -0.16 1.56 -0.16 q0.88 -0.04 1.36 0.2 q0.16 0.08 0.28 0.28 l0.08 0.24 q0.04 0.24 0.08 0.64 q0.12 0.72 0.12 1.76 q0.04 0.96 0.04 1.72 q-0.04 0.4 -0.08 0.6 q0 0.16 -0.04 0.24 q-0.04 0.24 -0.2 0.32 q-0.44 0.28 -1.56 0.24 l-0.56 0 q-0.52 -0.04 -0.64 -0.04 q-2.84 0 -3.36 -1.44 q-0.2 -0.64 -0.12 -1.72 q0.04 -0.4 0.16 -1.04 q0 -0.04 0.08 -0.56 t0.08 -0.64 q0.04 -0.12 0.04 -0.24 q0.04 -0.4 0.44 -0.36 q0.2 0.04 0.28 0.2 z M168.67000000000002 19.24 q-0.16 1.72 -0.04 10.52 q0.04 4 0.16 6.64 q0.12 2.88 0.24 3.32 q0 0.04 0.04 0.04 q0.08 0.04 0.28 0.04 q0.4 0.08 1.08 0 q0.36 0 0.8 -0.08 l0.2 -0.04 q0.24 0 0.46 -0.02 t0.26 -0.02 l0.52 0 l0.24 0 q0.4 0.04 0.56 -0.04 l0 -0.08 l0 -0.08 q-0.04 -0.2 0.08 -0.32 q0.44 -3.12 0.28 -10.2 q-0.08 -3.64 -0.32 -6.12 q-0.28 -2.68 -0.68 -3.24 l0 -0.04 q-0.08 0 -0.12 -0.04 q-0.2 -0.08 -0.48 -0.12 q-0.56 -0.08 -1.44 -0.12 q-0.4 -0.04 -0.88 -0.04 l-0.4 0 l-0.18 0 t-0.18 -0.04 l-0.48 0 l0 0.04 l0 0.04 z M168.51000000000002 18.36 l0.64 0 q0.04 0.04 0.2 0.04 l0.16 0 l0.4 0 q0.52 0 0.92 0.04 q0.92 0.04 1.52 0.12 q0.88 0.16 1.12 0.48 q0.52 0.72 0.84 3.68 q0.24 2.52 0.32 6.16 q0.16 7.68 -0.36 10.64 q0.04 0.56 -0.44 0.8 q-0.32 0.16 -0.96 0.12 l-0.24 0 l-0.4 0 l-0.14 0 t-0.22 0.02 l-0.24 0.04 t-0.2 0.02 l-0.12 0 q-0.44 0.08 -0.8 0.08 q-0.76 0.08 -1.24 0 q-0.32 -0.04 -0.52 -0.12 q-0.32 -0.12 -0.44 -0.4 q-0.36 -0.96 -0.48 -10.32 q-0.12 -8.84 0.04 -10.6 q0.04 -0.2 0.2 -0.32 q-0.04 -0.08 0 -0.16 q0.04 -0.4 0.44 -0.32 z M182.24 23.8 q-0.04 0.84 -0.32 3.56 q-0.24 2.2 -0.28 3.56 q-0.24 4.36 0.76 6.64 q1.28 2.84 4.72 2.84 q1.24 0 2.16 -0.2 q1.12 -0.28 1.64 -0.84 q-0.04 -0.08 -0.04 -0.16 q0 -0.6 -0.12 -1.4 q-0.12 -0.64 -0.36 -1.6 q-0.04 -0.12 -0.04 -0.2 q-0.16 0.12 -0.44 0.2 q-0.8 0.36 -1.48 -0.08 q-0.52 -0.36 -0.88 -1.24 q-0.56 -1.36 -0.72 -4.04 q-0.12 -2 0.04 -4.44 q0.12 -1.96 0.24 -2.64 q0.08 -0.4 0.48 -0.32 q0.04 0 0.08 0.04 q0.28 -0.04 1 -0.04 l0.28 0 q1.04 0.04 1.48 -0.24 q-0.08 0.04 -0.04 -0.12 q0 -0.04 -0.04 0 l0.12 -0.44 q0.2 -0.92 0.16 -1.6 q-0.08 -0.84 -0.48 -1.2 q-0.52 -0.44 -1.72 -0.16 q-0.04 0 -0.08 0.04 l-0.04 0 l-0.04 0 l-0.04 0 q-0.16 0.04 -0.24 0.08 q-0.44 0.08 -0.72 0 q-0.48 -0.2 -0.52 -0.76 q-0.04 -0.36 -0.04 -2.24 l0 -1.48 q0 -1.64 -0.04 -2.52 q-0.04 -0.56 -0.08 -0.88 q-0.12 0.08 -0.16 0.08 q-0.76 0.4 -2 1.48 q-0.84 0.68 -1.28 1 q-0.64 0.48 -1.28 0.76 q0.04 0.08 0.04 0.16 q-0.08 2.36 -0.08 4 q0 0.2 -0.2 0.32 q-0.12 0.28 -0.4 0.28 l-1 0 l-0.16 0 l-0.2 0 q-0.08 0 -0.2 0.04 q-0.16 0.04 -0.2 0.08 l0 0.04 q-0.04 0.04 -0.04 0.28 q0 0.12 -0.04 0.44 q0 0.04 -0.02 0.32 t-0.06 0.36 q-0.04 0.36 -0.04 0.64 q-0.08 0.72 -0.04 1.12 l0 0.24 q0.2 0 0.88 -0.12 q0.08 -0.04 0.16 -0.04 q0.64 -0.08 0.96 -0.08 q0.24 0 0.44 0.04 q0.04 0.04 0.08 0.04 l0.08 0 q0.4 0 0.4 0.4 z M191.04000000000002 35.480000000000004 q0.08 0.36 0.12 0.52 q0.28 0.96 0.36 1.64 q0.16 0.88 0.16 1.56 l0 0.08 q0.12 0.24 -0.04 0.44 q-0.64 0.88 -2.16 1.24 q-1 0.24 -2.36 0.24 q-3.96 0 -5.44 -3.32 q-1.08 -2.44 -0.84 -7 q0.04 -1.36 0.28 -3.6 q0.28 -2.6 0.28 -3.16 l-0.16 0 q-0.28 0 -0.84 0.08 q-0.08 0 -0.16 0.04 q-1 0.16 -1.28 0.08 q-0.32 -0.04 -0.44 -0.44 q-0.08 -0.2 -0.08 -0.52 q-0.04 -0.44 0.04 -1.24 q0 -0.28 0.04 -0.64 q0.04 -0.08 0.06 -0.36 t0.06 -0.32 l0 -0.36 q0 -0.52 0.12 -0.72 q0.2 -0.32 0.68 -0.44 q0.24 -0.08 0.44 -0.08 l0.2 0 l0.16 0 l0.8 0 q0 -1.56 0.08 -3.84 q0 -0.08 0.04 -0.16 l0 -0.08 q-0.16 -0.36 0.2 -0.52 q0.64 -0.28 1.32 -0.76 q0.44 -0.32 1.24 -0.96 q1.32 -1.12 2.12 -1.56 l0.04 -0.04 l0.04 0 q0 -0.04 0.04 -0.04 q0 -0.04 0.04 -0.04 q0.08 -0.08 0.16 -0.12 q0.16 -0.04 0.28 -0.08 q0.28 -0.04 0.44 0.12 q0.32 0.24 0.4 1.6 q0.04 0.92 0.04 2.6 l0 1.48 q0 1.84 0.04 2.2 l0 0.04 l0 0 l0.08 0 q0.08 0 0.2 -0.04 q0.08 0 0.2 -0.04 l0.04 0 l0.04 -0.04 l0.12 0 q1.6 -0.4 2.44 0.32 q0.68 0.56 0.76 1.76 q0.04 0.8 -0.2 1.8 q-0.04 0.32 -0.12 0.6 q-0.04 0.12 -0.08 0.2 l0 0.04 l-0.08 0.16 l-0.04 0.16 l-0.04 -0.08 q-0.68 0.4 -1.96 0.36 l-0.24 0 l-0.84 0 q-0.08 0.88 -0.16 2.2 q-0.16 2.4 -0.04 4.36 q0.12 2.56 0.64 3.8 q0.52 1.2 1.36 0.88 q0.44 -0.2 0.56 -0.4 q0.2 -0.36 0.56 -0.2 q0.24 0.16 0.2 0.44 z"></path></g><g id="SvgjsG1497" featurekey="sloganFeature-0" transform="matrix(0.6909000269289819,0,0,0.6909000269289819,75.30909997307101,217.79422297895422)" fill="#fff"><path d="M1 18.76 q0 -0.5 0.34 -0.85 t0.84 -0.35 t0.85 0.35 t0.35 0.85 t-0.35 0.84 t-0.85 0.34 t-0.84 -0.34 t-0.34 -0.84 z M9.834 7.18 l-1.74 -2.1 l2.82 0 l9.58 11.4 l0 -11.4 l2.2 0 l0 14.92 l-2.16 0 l-8.56 -10.26 l0 10.26 l-2.14 0 l0 -12.82 z M32.088 14.02 l0 3.8 l9.2 0 l0 2.18 l-11.38 0 l0 -14.92 l10.5 0 l0 2.2 l-8.32 0 l0 4.52 q0.62 -0.36 1.38 -0.48 q0.56 -0.1 1.44 -0.1 l3.26 0 l0 2.22 l-3.26 0 q-0.82 0 -1.44 0.1 q-0.76 0.14 -1.38 0.48 z M58.702 7.279999999999999 l-5.26 0 l0 12.72 l-2.12 0 l0 -12.72 l-5.32 0 l0 -2.2 l12.7 0 l0 2.2 z M75.53 7.279999999999999 l0 10.54 l3.38 0 q1.4 0 2.52 -0.72 q1.06 -0.7 1.66 -1.88 t0.6 -2.58 q0 -1.46 -0.57 -2.68 t-1.63 -1.94 q-1.14 -0.74 -2.62 -0.74 l-3.34 0 z M72.21 7.279999999999999 l-0.96 -2.2 l7.6 0 q1.98 0 3.62 1.02 q1.58 0.98 2.5 2.68 t0.92 3.7 q0 1.5 -0.59 2.97 t-1.63 2.57 q-1 1.08 -2.14 1.54 q-1.1 0.44 -2.62 0.44 l-5.52 0 l0 -12.72 l-1.18 0 z M94.28399999999999 14.02 l0 3.8 l9.2 0 l0 2.18 l-11.38 0 l0 -14.92 l10.5 0 l0 2.2 l-8.32 0 l0 4.52 q0.62 -0.36 1.38 -0.48 q0.56 -0.1 1.44 -0.1 l3.26 0 l0 2.22 l-3.26 0 q-0.82 0 -1.44 0.1 q-0.76 0.14 -1.38 0.48 z M123.198 5.08 l-6.26 14.92 l-2.58 0 l-6.16 -14.92 l2.36 0 l5.1 12.48 l5.14 -12.48 l2.4 0 z M130.992 14.02 l0 3.8 l9.2 0 l0 2.18 l-11.38 0 l0 -14.92 l10.5 0 l0 2.2 l-8.32 0 l0 4.52 q0.62 -0.36 1.38 -0.48 q0.56 -0.1 1.44 -0.1 l3.26 0 l0 2.22 l-3.26 0 q-0.82 0 -1.44 0.1 q-0.76 0.14 -1.38 0.48 z M156.96599999999998 20 l-10.46 0 l0 -14.92 l2.18 0 l0 12.74 l8.28 0 l0 2.18 z M175.27999999999997 12.440000000000001 q0 -1.6 -0.82 -2.9 q-0.78 -1.26 -2.13 -1.98 t-2.93 -0.72 q-1.64 0 -2.99 0.74 t-2.11 2.02 q-0.78 1.34 -0.78 2.98 q0 1.56 0.84 2.88 q0.8 1.24 2.15 1.97 t2.92 0.73 t2.92 -0.76 t2.13 -2.04 q0.8 -1.34 0.8 -2.92 z M177.43999999999997 12.559999999999999 q0 2.16 -1.12 3.98 q-1.08 1.74 -2.93 2.77 t-3.99 1.03 q-2.22 0 -4.08 -1.08 q-1.82 -1.04 -2.86 -2.86 q-1.08 -1.86 -1.08 -4.08 q0 -2.14 1.14 -3.94 q1.08 -1.72 2.93 -2.73 t3.97 -1.01 q2.18 0 4.04 1.06 q1.82 1.04 2.88 2.82 q1.1 1.86 1.1 4.04 z M188.67399999999998 11.46 l2.64 0 q2.2 0 2.2 -2.12 q0 -1.1 -0.55 -1.59 t-1.65 -0.49 l-5.48 0 l0 4.8 q0.62 -0.36 1.4 -0.5 q0.58 -0.1 1.44 -0.1 z M185.83399999999997 20 l-2.18 0 l0 -14.92 l7.66 0 q1.32 0 2.3 0.51 t1.52 1.47 t0.54 2.27 t-0.54 2.29 t-1.53 1.51 t-2.29 0.53 l-2.64 0 q-1.72 0 -2.84 0.6 l0 5.74 z M203.86799999999997 14.02 l0 3.8 l9.2 0 l0 2.18 l-11.38 0 l0 -14.92 l10.5 0 l0 2.2 l-8.32 0 l0 4.52 q0.62 -0.36 1.38 -0.48 q0.56 -0.1 1.44 -0.1 l3.26 0 l0 2.22 l-3.26 0 q-0.82 0 -1.44 0.1 q-0.76 0.14 -1.38 0.48 z M221.56199999999995 7.26 l0 4.96 q0.62 -0.36 1.38 -0.48 q0.56 -0.1 1.44 -0.1 l2.84 0 q1.18 0 1.84 -0.54 q0.7 -0.58 0.7 -1.74 q0 -1.1 -0.74 -1.64 q-0.64 -0.46 -1.8 -0.46 l-5.66 0 z M227.94199999999995 17.64 l-1.82 -3.82 l-1.74 0 q-0.82 0 -1.44 0.1 q-0.76 0.14 -1.38 0.48 l0 5.6 l-2.18 0 l0 -14.92 l7.84 0 q1.38 0 2.44 0.52 t1.64 1.48 q0.62 1.02 0.62 2.4 q0 1.68 -0.9 2.76 t-2.54 1.5 l1.16 2.38 q0.5 0.74 0.78 1.04 q0.34 0.38 0.65 0.51 t0.81 0.13 l0.22 0 l0.48 -0.02 l0 2.22 q-1.16 0 -1.72 -0.08 q-0.94 -0.16 -1.6 -0.62 q-0.78 -0.56 -1.32 -1.66 z"></path></g></svg>