<svg viewBox="0 0 312.5 317.6250144464802">
    <defs id="SvgjsDefs1493"><linearGradient id="SvgjsLinearGradient1502"><stop id="SvgjsStop1503" stop-color="#ef4136" offset="0"></stop><stop id="SvgjsStop1504" stop-color="#fbb040" offset="1"></stop></linearGradient><linearGradient id="SvgjsLinearGradient1505"><stop id="SvgjsStop1506" stop-color="#ef4136" offset="0"></stop><stop id="SvgjsStop1507" stop-color="#fbb040" offset="1"></stop></linearGradient></defs><g id="SvgjsG1496" featurekey="nameFeature-0" transform="matrix(1.039167955267067,0,0,1.039167955267067,56.758855373408174,167.12337487298987)" fill="#fff"><path d="M18 19.28 q-7.28 -0.64 -16.08 0.08 q0.04 0.24 0 1.4 l0 1.04 q-0.04 1.04 0 1.64 q0.04 0.36 0.08 0.56 q0 0.04 0.04 0.08 l0.28 0 q0.36 0.04 1.04 0 q1.08 -0.08 3.04 -0.32 q0.36 -0.04 0.8 -0.12 l0.4 -0.04 q0.36 -0.04 0.8 -0.1 l0.88 -0.12 t0.6 -0.06 q0.6 -0.08 0.88 -0.12 l0.28 0 l0.12 0 q0.16 0.04 0.28 0.12 q0.2 0.2 0.08 0.44 q0 0.04 -0.04 0.1 t-0.08 0.1 q-0.08 0.12 -0.24 0.28 q-0.2 0.28 -0.64 0.76 l-0.04 0.04 q-0.08 0.08 -0.32 0.34 t-0.44 0.48 t-0.2 0.26 q-0.6 0.68 -1.92 1.96 q-0.12 0.12 -0.62 0.6 t-0.54 0.56 q-0.72 0.68 -1.24 1.2 q-1.76 1.8 -2.84 3.2 q-1.36 1.8 -1.92 3.32 q-0.68 1.88 -0.08 3.44 q4.8 0.4 10.2 0.48 q7.2 0.16 9 -0.48 q-0.4 -2.08 -0.36 -4.08 l0 -0.32 l0.04 -0.24 l0 -0.44 q0 -0.12 -0.04 -0.2 q0 -0.04 -0.02 -0.06 t-0.06 -0.02 q-0.12 -0.04 -0.32 -0.04 q-0.32 -0.04 -1.28 0.04 q-0.04 0 -0.46 0.04 t-0.54 0.04 q-0.68 0.08 -1.24 0.12 q-1.72 0.08 -3.48 0.16 q-0.08 0 -0.6 0.04 l-0.52 0.08 q-0.52 0.08 -0.68 0.08 q-0.16 0.04 -0.32 0.04 q-1 0.12 -1.52 0.16 q-0.36 0.04 -0.56 0.04 q-0.12 0 -0.2 -0.02 t-0.16 -0.06 q-0.16 -0.12 -0.2 -0.32 q-0.12 -0.76 1.8 -2.72 q0.56 -0.56 1.84 -1.8 q1.48 -1.4 2.16 -2.04 q1.88 -1.84 3.04 -3.24 q3.48 -4.2 2.12 -6.36 z M1.68 18.56 q8.92 -0.76 16.36 -0.08 l0.04 0 q0.12 0 0.2 0.04 q0.2 0.04 0.28 0.16 q1.08 1.48 0.32 3.6 q-0.6 1.68 -2.4 3.88 q-1.2 1.4 -3.08 3.28 q-0.68 0.68 -2.16 2.08 q-1.28 1.2 -1.84 1.76 q-0.84 0.88 -1.24 1.4 q-0.12 0.2 -0.24 0.36 q0.08 -0.04 0.16 -0.04 q0.52 -0.04 1.48 -0.16 q0.16 0 0.36 -0.04 q0.16 0 0.64 -0.08 l0.52 -0.08 q0.6 -0.04 0.72 -0.04 q1.76 -0.08 3.4 -0.16 q0.6 -0.04 1.28 -0.12 q0.12 0 0.52 -0.04 t0.48 -0.04 q0.96 -0.08 1.36 -0.04 q0.6 0 0.88 0.26 t0.32 0.82 l0 0.48 l-0.04 0.24 l0 0.36 q-0.04 1.92 0.36 3.96 q0.04 0.12 0 0.2 q0.12 0.36 -0.2 0.52 q-1.68 0.8 -9.6 0.64 q-5.44 -0.08 -10.32 -0.48 q-0.16 0 -0.24 -0.12 q-0.28 -0.04 -0.36 -0.28 q-0.76 -1.88 0.04 -4.12 q0.6 -1.64 2.04 -3.52 q1.12 -1.44 2.92 -3.28 l1.24 -1.24 q0.04 -0.04 0.54 -0.52 t0.62 -0.6 q1.28 -1.28 1.84 -1.92 q0.04 -0.04 0.24 -0.26 t0.44 -0.5 t0.32 -0.32 q0 -0.04 0.04 -0.04 q0.2 -0.24 0.36 -0.4 q-0.16 0 -0.32 0.02 t-0.6 0.08 t-0.86 0.12 t-0.82 0.1 l-0.36 0.04 q-0.48 0.08 -0.84 0.12 q-1.96 0.24 -3.08 0.32 q-1.6 0.08 -1.92 -0.2 q-0.28 -0.2 -0.36 -1.16 q-0.04 -0.64 0 -1.72 l0 -1.04 q0.04 -1.36 0 -1.48 q-0.04 -0.28 0.2 -0.44 q0.08 -0.24 0.36 -0.28 z M37.17 27.96 q0.08 -0.16 -0.08 -0.52 q-0.2 -0.52 -0.72 -1.16 q-1.12 -1.44 -2.5 -2.24 t-1.9 -0.2 q-0.8 0.84 -0.16 4.04 q0.12 0 0.2 0.04 q0.52 0.04 0.96 0.08 q0.84 0.04 1.56 0.08 q1.2 0.08 1.92 0 q0.4 0 0.64 -0.08 q0.04 0 0.08 -0.04 z M31.13 28.32 q-0.08 -0.08 -0.08 -0.16 q-0.76 -3.68 0.32 -4.84 q0.52 -0.6 1.4 -0.52 q0.68 0.08 1.52 0.56 q1.52 0.84 2.72 2.44 q1.36 1.72 0.84 2.6 q-0.12 0.28 -0.56 0.4 q-0.32 0.04 -0.8 0.08 q-0.76 0.08 -2 0 q-0.72 -0.04 -1.56 -0.08 q-0.48 -0.04 -1 -0.12 l-0.16 0 t-0.2 -0.04 l-0.08 0 q-0.32 0 -0.36 -0.32 z M31.37 31.119999999999997 q2.24 0.12 5.36 0.08 q1.04 0 3.16 -0.04 q2.92 -0.08 4.36 -0.08 q-1.08 -5.16 -4.48 -8.12 q-3.2 -2.76 -6.96 -2.52 q-3.84 0.28 -5.96 3.48 q-2.44 3.6 -1.64 9.64 q0.52 3.6 3.32 5.64 q2.56 1.84 6.08 1.88 q3.48 0.04 6.12 -1.6 q2.64 -1.72 3.24 -4.52 q-3.28 -0.68 -4.96 -1.12 q-0.88 2 -2.16 2.92 t-2.68 0.48 q-1.36 -0.4 -2.28 -1.86 t-1.16 -3.58 q-0.04 -0.32 0.24 -0.4 q0.08 -0.28 0.4 -0.28 z M39.05 33 q1.8 0.52 5.36 1.24 q0.16 0 0.24 0.16 q0.2 0.12 0.16 0.36 q-0.56 3.4 -3.64 5.4 q-2.84 1.8 -6.56 1.72 q-3.8 -0.04 -6.56 -2.04 q-3.08 -2.24 -3.6 -6.16 q-0.88 -6.36 1.72 -10.24 q2.36 -3.48 6.56 -3.76 q4.12 -0.28 7.56 2.68 q3.76 3.24 4.8 8.96 q0.08 0.4 -0.32 0.48 q-0.08 0.08 -0.24 0.08 q-1.56 0 -4.64 0.08 q-2.08 0.04 -3.16 0.04 q-3 0.04 -5.2 -0.08 q0.24 1.8 1.02 3.02 t1.86 1.54 t2.12 -0.48 t1.8 -2.68 q0.08 -0.2 0.36 -0.24 q0.16 -0.12 0.36 -0.08 z M56.78 39.08 q0.48 0.6 1.36 0.84 q0.76 0.16 2.12 0.12 q0.24 0 0.68 -0.04 q0.8 -0.04 1.16 -0.04 q1.32 -2.24 2.56 -5.32 q0.84 -2.04 2.08 -5.76 q0.08 -0.2 0.16 -0.44 q0 -0.04 0.06 -0.24 t0.1 -0.24 q1.72 -5.08 2.8 -7.56 l0.08 -0.16 q0.04 -0.12 0.12 -0.3 t0.12 -0.26 q0 -0.04 0.04 -0.08 q0.08 -0.2 0.12 -0.32 l-0.32 0 q-0.72 0 -1.8 0.04 q-1.08 0.08 -1.88 0.12 q-0.84 0.08 -0.96 0.12 q0 0.04 -0.04 0.08 q-0.08 0.04 -0.16 0.16 q-0.2 0.28 -0.4 0.72 q-0.36 0.88 -0.84 2.44 q-0.32 1.12 -0.84 3 l-0.12 0.52 q-0.16 0.52 -0.3 1.08 t-0.18 0.76 q-0.36 1.32 -0.6 2.12 q-0.68 2.2 -1.2 2.44 q-0.16 0.08 -0.32 0 q-0.08 0 -0.16 -0.08 q-0.04 -0.04 -0.04 -0.08 q-0.04 -0.04 -0.06 -0.1 t-0.06 -0.14 q-0.04 -0.16 -0.12 -0.44 q-0.04 -0.2 -0.12 -0.44 q0 -0.08 -0.04 -0.16 l0 -0.08 q-0.36 -1.36 -1.04 -3.16 q-0.4 -1 -2.04 -4.72 q-0.8 -1.84 -1.28 -2.92 q-0.32 -0.6 -0.48 -0.92 l-0.12 -0.24 q-0.72 -0.24 -2.52 -0.08 q-0.6 0.04 -1.4 0.16 q-0.04 0 -0.22 0.04 t-0.42 0.06 t-0.4 0.06 q0.36 2.68 2.9 9.8 t4.02 9.64 z M49.38 18.88 q0.08 0 0.4 -0.04 l0.64 -0.08 t0.36 -0.08 q0.84 -0.08 1.44 -0.16 q2.08 -0.2 3 0.16 q0.16 0.08 0.28 0.28 q0.04 0.12 0.16 0.32 l0.48 0.96 q0.48 1.08 1.32 2.92 q1.64 3.72 2.04 4.76 q0.68 1.84 1.04 3.24 q0 0.04 0.04 0.08 q0 0.08 0.04 0.16 q0 0.08 0.04 0.16 q0.2 -0.48 0.48 -1.36 q0.24 -0.8 0.56 -2.08 q0.08 -0.2 0.22 -0.76 t0.26 -1.08 l0.16 -0.52 q0.52 -1.92 0.84 -3.04 q0.48 -1.6 0.88 -2.52 q0.52 -1.16 1.04 -1.36 q0.4 -0.16 3.08 -0.32 q1.08 -0.04 1.84 -0.04 l0.64 0 q0.12 0 0.2 0.04 q0.24 0.04 0.36 0.16 q0.08 0.16 0.08 0.32 q0 0.08 -0.04 0.12 q0 0.08 -0.08 0.24 q-0.08 0.2 -0.24 0.56 q0 0.04 -0.04 0.08 q-0.04 0.08 -0.12 0.26 t-0.12 0.3 l-0.08 0.16 q-1.08 2.44 -2.76 7.48 q-0.04 0.04 -0.1 0.24 t-0.06 0.24 q-0.08 0.28 -0.16 0.48 q-1.28 3.72 -2.08 5.8 q-1.28 3.12 -2.64 5.4 q-0.04 0.08 -0.12 0.12 q-0.08 0.28 -0.36 0.28 q-0.4 0 -1.32 0.04 q-0.44 0.04 -0.68 0.04 q-1.48 0.08 -2.32 -0.16 q-1.12 -0.24 -1.76 -1.04 l-0.08 -0.08 q0 -0.04 -0.04 -0.04 q0 -0.04 -0.04 -0.08 t-0.04 -0.12 q-1.64 -2.84 -4.22 -10.18 t-2.78 -9.74 l0 -0.04 q-0.04 -0.4 0.36 -0.48 z M83.11000000000001 11.48 l-0.04 0 q-0.04 -0.04 -0.12 -0.04 q-0.2 -0.08 -0.6 -0.12 q-0.68 -0.08 -1.84 -0.04 q-0.64 0 -1.56 0.04 l-0.8 0.04 l-0.36 0 q1 6.32 0.96 15.76 q0 2.12 -0.04 6.28 q-0.08 4.36 -0.08 6.48 q0.96 0 2.96 -0.04 l0.52 0 q0.8 -0.04 1.36 -0.04 q0 -0.68 0.04 -2.32 l0 -1.8 t0.04 -1.92 q0.04 -4.6 0.04 -7.84 q0 -6.04 -0.08 -9.6 q-0.16 -4.24 -0.4 -4.84 z M77.63000000000001 10.559999999999999 l0.48 0 q0.6 -0.04 0.8 -0.04 q0.92 -0.04 1.6 -0.04 q1.2 -0.04 1.92 0.04 q1.08 0.12 1.32 0.52 q0.4 0.68 0.56 5.28 q0.08 3.52 0.08 9.6 q0 3.24 -0.04 7.84 q-0.04 0.4 -0.04 1.94 l0 1.78 q-0.04 1.76 -0.04 2.44 q0 0.2 -0.12 0.32 q-0.04 0.36 -0.4 0.36 q-0.64 0 -1.64 0.04 l-0.48 0 q-2.24 0.04 -3.36 0 q-0.4 0 -0.4 -0.4 l0 -0.04 q-0.04 -0.12 -0.04 -0.2 q0 -2.2 0.08 -6.6 q0.04 -4.16 0.04 -6.28 q0.04 -9.52 -0.96 -15.84 q-0.08 -0.4 0.28 -0.48 q0.12 -0.24 0.36 -0.24 z M100.36000000000001 33 q-1.88 -0.44 -3.4 0.84 q-0.72 0.64 -0.76 1.28 q0 0.64 0.8 1.12 q0.76 0.36 1.84 0.14 t1.88 -0.9 q0.76 -0.64 0.72 -1.24 q-0.04 -0.68 -1.08 -1.24 z M101.60000000000001 32.88 q0.6 0.6 0.64 1.32 q0.04 1 -1 1.92 q-1 0.8 -2.32 1.06 t-2.28 -0.26 q-1.2 -0.64 -1.22 -1.72 t1.02 -1.96 q0.96 -0.8 2.24 -1.04 q0.96 -0.2 1.84 0.04 l0.08 0 q0.4 0.12 0.76 0.28 q0.24 0.12 0.24 0.36 z M89.76000000000002 23.96 q1.56 -2.96 3.8 -4.8 q2.6 -2.12 5.68 -2.4 q5.2 -0.44 7.24 3.72 q0.8 1.68 1.16 4.24 q0.28 1.88 0.36 4.8 q0.04 0.76 0.04 2.36 q0.04 3.32 0.16 4.76 q0.2 2.16 0.72 3.32 q0.32 0.08 0.32 0.4 q0 0.4 -0.4 0.4 q-0.56 0 -1.52 0.04 q-1.04 0.08 -1.52 0.08 q-0.8 0 -1.36 -0.16 q-1.28 -0.4 -1.88 -1.8 q-1.64 0.72 -4.28 0.98 t-4.92 -0.1 q-2.84 -0.48 -4.04 -1.88 q-1.52 -1.72 -0.32 -4.4 q0.6 -1.4 1.28 -2.36 q0.88 -1.28 1.92 -1.92 q1.2 -0.72 2.8 -1.24 q0.92 -0.28 2.84 -0.72 q0.08 0 0.12 -0.04 q2.52 -0.56 3.76 -1.04 q0.24 -1.68 -0.4 -2.44 q-0.52 -0.64 -1.68 -0.52 q-1.2 0.12 -2.48 0.94 t-1.96 1.98 q-0.2 0.32 -0.52 0.12 q-0.08 -0.04 -0.12 -0.08 q-2.72 -0.56 -4.6 -1.44 q-0.24 -0.12 -0.2 -0.4 q-0.12 -0.2 0 -0.4 z M102.20000000000002 26.84 q-1.36 0.6 -4.08 1.2 l-0.04 0 q-0.04 0 -0.08 0.04 q-1.88 0.4 -2.76 0.68 q-1.52 0.48 -2.6 1.16 q-1.6 0.96 -2.92 3.92 q-0.96 2.2 0.2 3.52 q1 1.2 3.56 1.64 q2.28 0.36 4.88 0.08 t4.08 -1 q0.08 -0.04 0.16 -0.04 q0.04 0 0.04 -0.04 q0.4 -0.12 0.52 0.28 q0.48 1.36 1.52 1.68 q0.44 0.12 1.16 0.12 q0.4 0 1.4 -0.08 q0.52 0 0.84 -0.04 q-0.48 -1.2 -0.68 -3.24 q-0.12 -1.48 -0.16 -4.84 q0 -1.6 -0.04 -2.36 q-0.08 -2.84 -0.32 -4.68 q-0.36 -2.44 -1.12 -4 q-1.8 -3.68 -6.44 -3.28 q-2.84 0.24 -5.24 2.24 q-2.04 1.68 -3.52 4.36 q1.68 0.76 4.16 1.24 q0.84 -1.16 2.18 -2 t2.66 -0.96 q1.56 -0.16 2.4 0.8 q0.88 1.04 0.52 3.16 q0 0.08 -0.04 0.12 q-0.04 0.24 -0.24 0.32 z M128.49 26.240000000000002 q-5.12 -1.56 -8.64 0.28 q-1.44 0.76 -2.3 1.98 t-0.98 2.5 q-0.08 1.32 0.6 2.28 t2.04 1.36 q3.44 1.08 9.44 -1.88 q-0.04 -2.08 -0.16 -6.52 z M129.45000000000002 32.84 l0 0.24 q0 0.4 -0.4 0.4 l-0.04 0 q-6.28 3.08 -10.04 1.96 q-1.6 -0.52 -2.46 -1.72 t-0.74 -2.76 q0.12 -1.52 1.1 -2.9 t2.62 -2.22 q3.88 -2.08 9.48 -0.28 q0.04 0 0.08 0.04 q0.08 0.04 0.14 0.1 t0.06 0.14 l0 0.08 q0.16 4.2 0.2 6.56 l0 0.04 l0 0.12 l0 0.04 l0 0.12 l0 0.04 z M129.33 10.879999999999999 q0.24 0 0.68 -0.04 q0.08 -0.04 0.44 -0.08 t0.4 -0.04 q0.68 -0.08 1.16 -0.12 q2 -0.16 2.92 0.12 q0.24 0.08 0.4 0.36 q0.04 0.16 0.08 0.4 q0.08 0.36 0.04 0.92 l0 0.6 l0 0.56 q0.24 2.6 0.08 5.88 q-0.12 1.92 -0.52 5.88 q0 0.08 -0.02 0.2 t-0.02 0.16 q-0.48 4.56 -0.52 7 q-0.12 3.8 0.48 6.8 l0 0.08 q0.28 0.24 0.06 0.54 t-1.14 0.46 q-0.72 0.12 -1.72 0.16 q-0.96 0.04 -1.68 -0.04 q-0.4 -0.04 -0.64 -0.12 q-0.4 -0.12 -0.52 -0.4 q-0.16 -0.4 -0.16 -1.48 l0 -0.72 l0 -0.4 q-0.72 0.28 -2.2 1.04 l-0.04 0.04 q-0.04 0 -0.08 0.04 q-1.32 0.64 -2 0.92 q-1.12 0.52 -2.16 0.68 q-2.96 0.56 -5.2 -0.28 t-3.56 -2.92 q-1.16 -1.8 -1.44 -4.22 t0.36 -4.9 q0.64 -2.56 2.1 -4.58 t3.5 -3.1 q4.68 -2.44 10.68 0.8 q0 -4.32 -0.2 -9.56 q-0.04 -0.12 0.08 -0.24 q0 -0.36 0.36 -0.4 z M129.29000000000002 22.08 q-6 -3.48 -10.52 -1.08 q-1.88 0.96 -3.24 2.86 t-1.96 4.3 q-0.6 2.32 -0.34 4.58 t1.34 3.9 q2.44 3.84 7.96 2.84 q0.92 -0.16 2 -0.6 q0.64 -0.28 1.92 -0.92 q0 -0.04 0.04 -0.06 t0.08 -0.02 q1.76 -0.88 2.76 -1.24 q0.36 -0.12 0.52 0.28 l0 0.08 q0.08 0.12 0.08 0.24 q0.04 0.12 0 0.72 l0 0.72 q0 0.8 0.08 1.12 l0.04 0 q0.16 0.08 0.48 0.08 q0.64 0.08 1.56 0.04 t1.64 -0.16 q0.24 -0.04 0.44 -0.12 q-0.64 -3.08 -0.52 -7 q0.04 -2.44 0.52 -7.08 q0 -0.12 0.04 -0.32 q0.4 -3.92 0.52 -5.84 q0.16 -3.24 -0.08 -5.76 l0 -0.68 l0 -0.56 q0.04 -0.52 -0.04 -0.8 l0 -0.12 q-0.76 -0.24 -2.52 -0.08 q-0.48 0.04 -1.16 0.12 q-0.04 0 -0.38 0.04 t-0.46 0.04 q-0.24 0.04 -0.4 0.08 q0.2 5.36 0.2 9.76 q0 0.08 -0.04 0.16 q0.08 0.16 0 0.36 q-0.2 0.32 -0.56 0.12 z M156.14000000000001 40.16 q0.28 -0.04 0.96 -0.04 q0.8 0 1.2 -0.04 q1.68 -0.08 2.44 -0.48 q0 -0.68 0.04 -2.44 q0.04 -3.96 -0.04 -6.12 q-0.12 -3.84 -0.68 -6.44 q-0.64 -3.12 -1.92 -4.64 q-1.4 -1.68 -3.68 -1.36 q-2.72 0.4 -6.64 3.48 q-0.08 0.08 -0.24 0.08 q-0.12 0.08 -0.28 0.08 q-0.4 0 -0.4 -0.4 q0 -2.48 -0.68 -2.8 q-0.32 -0.16 -1.12 -0.04 q-0.32 0 -0.88 0.12 q-0.88 0.12 -1.16 0.16 t-0.52 0.08 q-0.04 1.04 -0.2 4.44 q-0.16 3.44 -0.2 5.52 q-0.16 6.68 0.52 10.32 q1.2 0.04 3.08 0.04 l0.72 0 l0.92 0 q0.04 -1.72 0.08 -2.64 q0.16 -3.2 0.48 -5.76 q0.6 -5.04 1.76 -7.32 q0.8 -1.56 1.9 -1.82 t2.46 0.9 q1.24 1.12 1.56 2.32 q0.84 3.2 0.72 8.44 q-0.04 0.88 -0.08 2.6 q-0.12 2.6 -0.12 3.76 z M142.10000000000002 18.62 q0.4 -0.06 0.84 -0.1 l1.12 -0.2 l0.96 -0.12 q1 -0.12 1.56 0.12 q1.04 0.48 1.12 2.84 q3.84 -2.96 6.64 -3.32 q2.72 -0.4 4.4 1.6 q1.44 1.68 2.12 5 q0.56 2.68 0.68 6.6 q0.08 2.16 0.04 6.12 q-0.04 1.72 -0.04 2.36 q0.24 0.32 -0.08 0.56 q-0.92 0.68 -3.12 0.8 q-0.4 0.04 -1.24 0.04 q-0.88 0.04 -1.24 0.04 q-0.28 0.04 -0.4 -0.24 q-0.12 -0.12 -0.12 -0.28 q0 -1.32 0.12 -4.08 q0.04 -1.72 0.08 -2.6 q0.12 -5.08 -0.68 -8.16 q-0.28 -1 -1.36 -1.96 q-1 -0.92 -1.76 -0.72 q-0.72 0.24 -1.32 1.4 q-1.12 2.16 -1.68 7.04 q-0.32 2.56 -0.48 5.68 l-0.08 3.04 q-0.04 0.4 -0.44 0.4 l-0.04 0 l-0.12 0 l-1.12 0 l-0.68 0 q-2 0 -3.24 -0.04 q-0.2 0 -0.32 -0.16 q-0.24 -0.04 -0.28 -0.32 q-0.76 -3.76 -0.6 -10.64 q0.04 -2.08 0.2 -5.56 q0.16 -3.4 0.2 -4.48 l0 -0.12 l0 -0.08 q-0.04 -0.4 0.36 -0.46 z M173.27 11.879999999999999 q-0.32 -0.12 -0.88 -0.08 q-0.48 0 -1.44 0.16 l-0.16 0 q-0.84 0.16 -1.2 0.2 q-0.44 0.04 -0.76 0 q-0.04 0.16 -0.06 0.38 t-0.06 0.38 t-0.04 0.2 q-0.08 0.6 -0.12 1 q-0.08 0.92 0.08 1.36 q0.32 0.92 2.6 0.92 q0.16 0 0.68 0.04 l0.56 0 q0.68 0.04 1 -0.08 q0 -0.2 0.04 -0.56 q0 -0.68 -0.04 -1.68 q0 -1 -0.08 -1.64 q-0.04 -0.36 -0.12 -0.56 l0 -0.04 z M168.83 11.399999999999999 q0.48 0 1.84 -0.2 q0.08 -0.04 0.12 -0.04 q1.04 -0.16 1.56 -0.16 q0.88 -0.04 1.36 0.2 q0.16 0.08 0.28 0.28 l0.08 0.24 q0.04 0.24 0.08 0.64 q0.12 0.72 0.12 1.76 q0.04 0.96 0.04 1.72 q-0.04 0.4 -0.08 0.6 q0 0.16 -0.04 0.24 q-0.04 0.24 -0.2 0.32 q-0.44 0.28 -1.56 0.24 l-0.56 0 q-0.52 -0.04 -0.64 -0.04 q-2.84 0 -3.36 -1.44 q-0.2 -0.64 -0.12 -1.72 q0.04 -0.4 0.16 -1.04 q0 -0.04 0.08 -0.56 t0.08 -0.64 q0.04 -0.12 0.04 -0.24 q0.04 -0.4 0.44 -0.36 q0.2 0.04 0.28 0.2 z M168.67000000000002 19.24 q-0.16 1.72 -0.04 10.52 q0.04 4 0.16 6.64 q0.12 2.88 0.24 3.32 q0 0.04 0.04 0.04 q0.08 0.04 0.28 0.04 q0.4 0.08 1.08 0 q0.36 0 0.8 -0.08 l0.2 -0.04 q0.24 0 0.46 -0.02 t0.26 -0.02 l0.52 0 l0.24 0 q0.4 0.04 0.56 -0.04 l0 -0.08 l0 -0.08 q-0.04 -0.2 0.08 -0.32 q0.44 -3.12 0.28 -10.2 q-0.08 -3.64 -0.32 -6.12 q-0.28 -2.68 -0.68 -3.24 l0 -0.04 q-0.08 0 -0.12 -0.04 q-0.2 -0.08 -0.48 -0.12 q-0.56 -0.08 -1.44 -0.12 q-0.4 -0.04 -0.88 -0.04 l-0.4 0 l-0.18 0 t-0.18 -0.04 l-0.48 0 l0 0.04 l0 0.04 z M168.51000000000002 18.36 l0.64 0 q0.04 0.04 0.2 0.04 l0.16 0 l0.4 0 q0.52 0 0.92 0.04 q0.92 0.04 1.52 0.12 q0.88 0.16 1.12 0.48 q0.52 0.72 0.84 3.68 q0.24 2.52 0.32 6.16 q0.16 7.68 -0.36 10.64 q0.04 0.56 -0.44 0.8 q-0.32 0.16 -0.96 0.12 l-0.24 0 l-0.4 0 l-0.14 0 t-0.22 0.02 l-0.24 0.04 t-0.2 0.02 l-0.12 0 q-0.44 0.08 -0.8 0.08 q-0.76 0.08 -1.24 0 q-0.32 -0.04 -0.52 -0.12 q-0.32 -0.12 -0.44 -0.4 q-0.36 -0.96 -0.48 -10.32 q-0.12 -8.84 0.04 -10.6 q0.04 -0.2 0.2 -0.32 q-0.04 -0.08 0 -0.16 q0.04 -0.4 0.44 -0.32 z M182.24 23.8 q-0.04 0.84 -0.32 3.56 q-0.24 2.2 -0.28 3.56 q-0.24 4.36 0.76 6.64 q1.28 2.84 4.72 2.84 q1.24 0 2.16 -0.2 q1.12 -0.28 1.64 -0.84 q-0.04 -0.08 -0.04 -0.16 q0 -0.6 -0.12 -1.4 q-0.12 -0.64 -0.36 -1.6 q-0.04 -0.12 -0.04 -0.2 q-0.16 0.12 -0.44 0.2 q-0.8 0.36 -1.48 -0.08 q-0.52 -0.36 -0.88 -1.24 q-0.56 -1.36 -0.72 -4.04 q-0.12 -2 0.04 -4.44 q0.12 -1.96 0.24 -2.64 q0.08 -0.4 0.48 -0.32 q0.04 0 0.08 0.04 q0.28 -0.04 1 -0.04 l0.28 0 q1.04 0.04 1.48 -0.24 q-0.08 0.04 -0.04 -0.12 q0 -0.04 -0.04 0 l0.12 -0.44 q0.2 -0.92 0.16 -1.6 q-0.08 -0.84 -0.48 -1.2 q-0.52 -0.44 -1.72 -0.16 q-0.04 0 -0.08 0.04 l-0.04 0 l-0.04 0 l-0.04 0 q-0.16 0.04 -0.24 0.08 q-0.44 0.08 -0.72 0 q-0.48 -0.2 -0.52 -0.76 q-0.04 -0.36 -0.04 -2.24 l0 -1.48 q0 -1.64 -0.04 -2.52 q-0.04 -0.56 -0.08 -0.88 q-0.12 0.08 -0.16 0.08 q-0.76 0.4 -2 1.48 q-0.84 0.68 -1.28 1 q-0.64 0.48 -1.28 0.76 q0.04 0.08 0.04 0.16 q-0.08 2.36 -0.08 4 q0 0.2 -0.2 0.32 q-0.12 0.28 -0.4 0.28 l-1 0 l-0.16 0 l-0.2 0 q-0.08 0 -0.2 0.04 q-0.16 0.04 -0.2 0.08 l0 0.04 q-0.04 0.04 -0.04 0.28 q0 0.12 -0.04 0.44 q0 0.04 -0.02 0.32 t-0.06 0.36 q-0.04 0.36 -0.04 0.64 q-0.08 0.72 -0.04 1.12 l0 0.24 q0.2 0 0.88 -0.12 q0.08 -0.04 0.16 -0.04 q0.64 -0.08 0.96 -0.08 q0.24 0 0.44 0.04 q0.04 0.04 0.08 0.04 l0.08 0 q0.4 0 0.4 0.4 z M191.04000000000002 35.480000000000004 q0.08 0.36 0.12 0.52 q0.28 0.96 0.36 1.64 q0.16 0.88 0.16 1.56 l0 0.08 q0.12 0.24 -0.04 0.44 q-0.64 0.88 -2.16 1.24 q-1 0.24 -2.36 0.24 q-3.96 0 -5.44 -3.32 q-1.08 -2.44 -0.84 -7 q0.04 -1.36 0.28 -3.6 q0.28 -2.6 0.28 -3.16 l-0.16 0 q-0.28 0 -0.84 0.08 q-0.08 0 -0.16 0.04 q-1 0.16 -1.28 0.08 q-0.32 -0.04 -0.44 -0.44 q-0.08 -0.2 -0.08 -0.52 q-0.04 -0.44 0.04 -1.24 q0 -0.28 0.04 -0.64 q0.04 -0.08 0.06 -0.36 t0.06 -0.32 l0 -0.36 q0 -0.52 0.12 -0.72 q0.2 -0.32 0.68 -0.44 q0.24 -0.08 0.44 -0.08 l0.2 0 l0.16 0 l0.8 0 q0 -1.56 0.08 -3.84 q0 -0.08 0.04 -0.16 l0 -0.08 q-0.16 -0.36 0.2 -0.52 q0.64 -0.28 1.32 -0.76 q0.44 -0.32 1.24 -0.96 q1.32 -1.12 2.12 -1.56 l0.04 -0.04 l0.04 0 q0 -0.04 0.04 -0.04 q0 -0.04 0.04 -0.04 q0.08 -0.08 0.16 -0.12 q0.16 -0.04 0.28 -0.08 q0.28 -0.04 0.44 0.12 q0.32 0.24 0.4 1.6 q0.04 0.92 0.04 2.6 l0 1.48 q0 1.84 0.04 2.2 l0 0.04 l0 0 l0.08 0 q0.08 0 0.2 -0.04 q0.08 0 0.2 -0.04 l0.04 0 l0.04 -0.04 l0.12 0 q1.6 -0.4 2.44 0.32 q0.68 0.56 0.76 1.76 q0.04 0.8 -0.2 1.8 q-0.04 0.32 -0.12 0.6 q-0.04 0.12 -0.08 0.2 l0 0.04 l-0.08 0.16 l-0.04 0.16 l-0.04 -0.08 q-0.68 0.4 -1.96 0.36 l-0.24 0 l-0.84 0 q-0.08 0.88 -0.16 2.2 q-0.16 2.4 -0.04 4.36 q0.12 2.56 0.64 3.8 q0.52 1.2 1.36 0.88 q0.44 -0.2 0.56 -0.4 q0.2 -0.36 0.56 -0.2 q0.24 0.16 0.2 0.44 z"></path></g><g id="SvgjsG1497" featurekey="sloganFeature-0" transform="matrix(0.6909000269289819,0,0,0.6909000269289819,75.30909997307101,217.79422297895422)" fill="#fff"><path d="M1 18.76 q0 -0.5 0.34 -0.85 t0.84 -0.35 t0.85 0.35 t0.35 0.85 t-0.35 0.84 t-0.85 0.34 t-0.84 -0.34 t-0.34 -0.84 z M9.834 7.18 l-1.74 -2.1 l2.82 0 l9.58 11.4 l0 -11.4 l2.2 0 l0 14.92 l-2.16 0 l-8.56 -10.26 l0 10.26 l-2.14 0 l0 -12.82 z M32.088 14.02 l0 3.8 l9.2 0 l0 2.18 l-11.38 0 l0 -14.92 l10.5 0 l0 2.2 l-8.32 0 l0 4.52 q0.62 -0.36 1.38 -0.48 q0.56 -0.1 1.44 -0.1 l3.26 0 l0 2.22 l-3.26 0 q-0.82 0 -1.44 0.1 q-0.76 0.14 -1.38 0.48 z M58.702 7.279999999999999 l-5.26 0 l0 12.72 l-2.12 0 l0 -12.72 l-5.32 0 l0 -2.2 l12.7 0 l0 2.2 z M75.53 7.279999999999999 l0 10.54 l3.38 0 q1.4 0 2.52 -0.72 q1.06 -0.7 1.66 -1.88 t0.6 -2.58 q0 -1.46 -0.57 -2.68 t-1.63 -1.94 q-1.14 -0.74 -2.62 -0.74 l-3.34 0 z M72.21 7.279999999999999 l-0.96 -2.2 l7.6 0 q1.98 0 3.62 1.02 q1.58 0.98 2.5 2.68 t0.92 3.7 q0 1.5 -0.59 2.97 t-1.63 2.57 q-1 1.08 -2.14 1.54 q-1.1 0.44 -2.62 0.44 l-5.52 0 l0 -12.72 l-1.18 0 z M94.28399999999999 14.02 l0 3.8 l9.2 0 l0 2.18 l-11.38 0 l0 -14.92 l10.5 0 l0 2.2 l-8.32 0 l0 4.52 q0.62 -0.36 1.38 -0.48 q0.56 -0.1 1.44 -0.1 l3.26 0 l0 2.22 l-3.26 0 q-0.82 0 -1.44 0.1 q-0.76 0.14 -1.38 0.48 z M123.198 5.08 l-6.26 14.92 l-2.58 0 l-6.16 -14.92 l2.36 0 l5.1 12.48 l5.14 -12.48 l2.4 0 z M130.992 14.02 l0 3.8 l9.2 0 l0 2.18 l-11.38 0 l0 -14.92 l10.5 0 l0 2.2 l-8.32 0 l0 4.52 q0.62 -0.36 1.38 -0.48 q0.56 -0.1 1.44 -0.1 l3.26 0 l0 2.22 l-3.26 0 q-0.82 0 -1.44 0.1 q-0.76 0.14 -1.38 0.48 z M156.96599999999998 20 l-10.46 0 l0 -14.92 l2.18 0 l0 12.74 l8.28 0 l0 2.18 z M175.27999999999997 12.440000000000001 q0 -1.6 -0.82 -2.9 q-0.78 -1.26 -2.13 -1.98 t-2.93 -0.72 q-1.64 0 -2.99 0.74 t-2.11 2.02 q-0.78 1.34 -0.78 2.98 q0 1.56 0.84 2.88 q0.8 1.24 2.15 1.97 t2.92 0.73 t2.92 -0.76 t2.13 -2.04 q0.8 -1.34 0.8 -2.92 z M177.43999999999997 12.559999999999999 q0 2.16 -1.12 3.98 q-1.08 1.74 -2.93 2.77 t-3.99 1.03 q-2.22 0 -4.08 -1.08 q-1.82 -1.04 -2.86 -2.86 q-1.08 -1.86 -1.08 -4.08 q0 -2.14 1.14 -3.94 q1.08 -1.72 2.93 -2.73 t3.97 -1.01 q2.18 0 4.04 1.06 q1.82 1.04 2.88 2.82 q1.1 1.86 1.1 4.04 z M188.67399999999998 11.46 l2.64 0 q2.2 0 2.2 -2.12 q0 -1.1 -0.55 -1.59 t-1.65 -0.49 l-5.48 0 l0 4.8 q0.62 -0.36 1.4 -0.5 q0.58 -0.1 1.44 -0.1 z M185.83399999999997 20 l-2.18 0 l0 -14.92 l7.66 0 q1.32 0 2.3 0.51 t1.52 1.47 t0.54 2.27 t-0.54 2.29 t-1.53 1.51 t-2.29 0.53 l-2.64 0 q-1.72 0 -2.84 0.6 l0 5.74 z M203.86799999999997 14.02 l0 3.8 l9.2 0 l0 2.18 l-11.38 0 l0 -14.92 l10.5 0 l0 2.2 l-8.32 0 l0 4.52 q0.62 -0.36 1.38 -0.48 q0.56 -0.1 1.44 -0.1 l3.26 0 l0 2.22 l-3.26 0 q-0.82 0 -1.44 0.1 q-0.76 0.14 -1.38 0.48 z M221.56199999999995 7.26 l0 4.96 q0.62 -0.36 1.38 -0.48 q0.56 -0.1 1.44 -0.1 l2.84 0 q1.18 0 1.84 -0.54 q0.7 -0.58 0.7 -1.74 q0 -1.1 -0.74 -1.64 q-0.64 -0.46 -1.8 -0.46 l-5.66 0 z M227.94199999999995 17.64 l-1.82 -3.82 l-1.74 0 q-0.82 0 -1.44 0.1 q-0.76 0.14 -1.38 0.48 l0 5.6 l-2.18 0 l0 -14.92 l7.84 0 q1.38 0 2.44 0.52 t1.64 1.48 q0.62 1.02 0.62 2.4 q0 1.68 -0.9 2.76 t-2.54 1.5 l1.16 2.38 q0.5 0.74 0.78 1.04 q0.34 0.38 0.65 0.51 t0.81 0.13 l0.22 0 l0.48 -0.02 l0 2.22 q-1.16 0 -1.72 -0.08 q-0.94 -0.16 -1.6 -0.62 q-0.78 -0.56 -1.32 -1.66 z"></path></g></svg>